<svg version="1.1" viewBox="0 0 303 56.6" xmlns="http://www.w3.org/2000/svg"><g transform="translate(-4.32 -4.9)"><g transform="matrix(1.9 0 0 1.9 -281 -390)"><g fill="#ccc"><g><rect transform="rotate(-10.1 -25.8 291)" x="210" y="273" width="1.66" height="4.14" stop-color="#000000" style="font-variation-settings:normal"/><rect transform="rotate(-25.4 -25.8 114)" x="143" y="321" width="1.72" height="4.12" stop-color="#000000" style="font-variation-settings:normal"/><rect transform="rotate(-18.2 -25.8 161)" x="180" y="300" width="1.72" height="4.12" stop-color="#000000" style="font-variation-settings:normal"/><rect transform="rotate(-27.6 -25.8 105)" x="134" y="327" width="1.72" height="4.12" stop-color="#000000" style="font-variation-settings:normal"/><rect transform="rotate(-27.6 -25.8 105)" x="138" y="326" width="1.72" height="4.12" stop-color="#000000" style="font-variation-settings:normal"/><rect transform="rotate(-36.2 -25.8 78.9)" x="90.6" y="344" width="1.72" height="4.12" stop-color="#000000" style="font-variation-settings:normal"/><rect transform="rotate(-36.2 -25.8 78.9)" x="94" y="344" width="1.72" height="4.12" stop-color="#000000" style="font-variation-settings:normal"/><rect transform="rotate(-14.2 -25.8 207)" x="197" y="287" width="1.72" height="4.12" stop-color="#000000" style="font-variation-settings:normal"/><rect transform="rotate(-14.2 -25.8 207)" x="194" y="287" width="1.72" height="4.12" stop-color="#000000" style="font-variation-settings:normal"/><path transform="translate(-51.6)" d="m256 235c3.59-1.04 9.81-2.21 14.5-4.73 1.87-1.01 11.4-5.99 11.4-5.99l1.79-.946.0859 12.5h-27.8z" stop-color="#000000" style="font-variation-settings:normal"/></g><path transform="translate(-51.6)" d="m204 233c2.12.0209 9.42.0641 12.2.0292s3.29-.148 6.28-.199c2.98-.051 5.66.268 8.14.229 2.48-.0389 3.63-.447 6.68-.0747s7.39.406 12.1-.21 9.51-2.44 13.7-4.22c4.24-1.78 8.77-3.34 11.6-4.99s3.62-2.2 5.54-3.3c1.91-1.11 2.44-2.12 4.54-3.54l1.23 1.39c-1.09.78-2.4 1.98-3.22 2.71-1.41 1.25-2.63 1.87-4.31 3.15-1.68 1.29-1.47 1.24-4.5 2.51s-9.23 4.24-13.1 5.33-5.86 1.86-9.11 2.31c-3.25.442-4.26.988-7.29.958-3.03-.0304-6.08-.44-10.7-.427-4.6.0125-12.2.0739-16.8.255-4.58.181-8.19.136-10.5.228-2.27.0923-1.79.012-3.19-.167-.131-.52-.123-1.19-.123-1.19s.397-.379.722-.771z"/></g><g transform="rotate(-30 221 309)"><g transform="matrix(.266 0 0 .266 205 164)"><g transform="translate(0 22.3)" fill="#4d4d4d" stroke="#b3b3b3" stroke-width=".278"><path d="m198 238c.242.565.387 1.27.699 1.87.777-.102 1.29-.192 2.68-.514.878-.203 1.31-.221 2-.464-.231-.684-.692-1.33-.835-2.05-.765.0645-1.54.224-2.3.394-.76.201-1.54.404-2.24.769z"/><path d="m205 237c.0329.614-.0746 1.33.0139 1.99.765.171 1.28.263 2.69.439.895.111 1.31.243 2.03.251.0187-.721-.191-1.49-.0782-2.21-.74-.202-1.52-.32-2.29-.42-.783-.0729-1.59-.151-2.37-.0485z"/><path d="m210 238c.0995.607.0702 1.33.231 1.98.779.0872 1.3.123 2.72.144.901.0133 1.33.0992 2.05.0285-.0598-.719-.352-1.46-.318-2.19-.758-.121-1.55-.152-2.32-.169-.786.0127-1.59.0228-2.36.209z"/><path d="m216 237c.085.609.0386 1.33.183 1.98.777.106 1.29.154 2.72.209.901.0347 1.32.131 2.05.0772-.0427-.72-.317-1.47-.266-2.2-.755-.139-1.55-.189-2.32-.224-.786-.006-1.59-.0151-2.36.153z"/><path d="m222 237c.125.602.127 1.32.315 1.97.782.054 1.3.0676 2.73.0279.901-.0251 1.33.0428 2.05-.0586-.0904-.716-.414-1.44-.411-2.18-.762-.0884-1.55-.0861-2.33-.0696-.785.0461-1.59.0905-2.35.309z"/><path d="m228 237c.135.6.149 1.32.347 1.96.783.0409 1.3.0458 2.73-.0177.901-.0402 1.33.0206 2.05-.0929-.102-.714-.438-1.44-.448-2.17-.764-.0757-1.56-.0601-2.33-.0306-.784.0593-1.59.117-2.34.349z"/><path d="m234 237c.005.615-.135 1.32-.0766 1.99.756.206 1.26.321 2.67.561.889.152 1.29.302 2.02.343.0515-.72-.123-1.5.0225-2.22-.73-.236-1.51-.389-2.27-.524-.779-.108-1.58-.222-2.36-.156z"/><path d="m239 238c.173.59.232 1.31.471 1.94.784-.009 1.3-.0365 2.72-.19.896-.0969 1.33-.0634 2.04-.222-.147-.707-.528-1.41-.584-2.14-.767-.0273-1.56.0383-2.33.117-.779.109-1.58.217-2.32.496z"/><path d="m246 237c-.002.615-.15 1.32-.1 1.99.754.215 1.26.335 2.66.592.887.162 1.29.317 2.02.367.0599-.719-.106-1.5.0486-2.22-.727-.244-1.5-.406-2.27-.551-.778-.118-1.57-.241-2.36-.184z"/><path d="m252 238c.196.583.284 1.3.548 1.92.783-.0399 1.3-.0884 2.71-.298.892-.133 1.32-.116 2.03-.303-.175-.7-.583-1.38-.669-2.11-.767.003-1.55.1-2.32.209-.774.14-1.57.28-2.29.588z"/><path d="m258 237c.085.609.0386 1.33.183 1.98.777.106 1.29.154 2.72.209.901.0347 1.32.131 2.05.0772-.0427-.72-.317-1.47-.266-2.2-.755-.139-1.55-.189-2.32-.224-.786-.006-1.59-.0151-2.36.153z"/><path d="m264 237c-.0316.614-.213 1.31-.195 1.98.743.25 1.24.395 2.63.719.878.204 1.27.378 2 .463.0942-.716-.034-1.5.154-2.21-.715-.279-1.48-.478-2.24-.658-.771-.154-1.56-.316-2.35-.296z"/><path d="m272 245c.487-.375 1.14-.692 1.63-1.14-.293-.727-.507-1.2-1.17-2.47-.416-.8-.542-1.21-.947-1.82-.605.394-1.12 1-1.78 1.32.253.724.602 1.44.955 2.13.384.686.776 1.39 1.3 1.98z"/><path d="m271 251c.614-.024 1.33.0938 1.99.0149.182-.762.281-1.27.478-2.69.124-.893.261-1.3.28-2.03-.721-.0291-1.49.17-2.22.0462-.213.737-.342 1.52-.453 2.29-.0841.782-.173 1.58-.0827 2.37z"/><path d="m267 254c.472.394.921.959 1.47 1.35.646-.443 1.06-.754 2.16-1.67.691-.579 1.07-.791 1.57-1.32-.515-.505-1.22-.875-1.67-1.45-.653.404-1.27.898-1.87 1.39-.587.523-1.19 1.06-1.65 1.7z"/><path d="m201 254c.0986.607.0684 1.33.228 1.98.779.0883 1.3.125 2.72.148.901.0145 1.32.101 2.05.0313-.0588-.719-.35-1.46-.315-2.19-.758-.122-1.55-.154-2.32-.172-.786.0116-1.59.0206-2.36.206z"/><path d="m207 254c.137.599.153 1.32.354 1.96.783.0381 1.3.0412 2.73-.0273.9-.0433 1.33.0159 2.05-.1-.105-.714-.443-1.44-.455-2.17-.764-.073-1.56-.0546-2.33-.0225-.784.062-1.59.123-2.34.357z"/><path d="m213 254c.126.602.128 1.32.316 1.97.782.0532 1.3.0663 2.73.0253.901-.026 1.33.0415 2.05-.0606-.091-.716-.415-1.44-.414-2.18-.762-.0877-1.55-.0846-2.33-.0674-.785.0469-1.59.092-2.35.312z"/><path d="m219 254c.085.609.0386 1.33.183 1.98.777.106 1.29.154 2.72.209.901.0347 1.32.131 2.05.0772-.0427-.72-.317-1.47-.266-2.2-.755-.139-1.55-.189-2.32-.224-.786-.006-1.59-.0151-2.36.153z"/><path d="m225 254c.085.609.0386 1.33.183 1.98.777.106 1.29.154 2.72.209.901.0347 1.32.131 2.05.0772-.0427-.72-.317-1.47-.266-2.2-.755-.139-1.55-.189-2.32-.224-.786-.006-1.59-.0151-2.36.153z"/><path d="m231 254c.085.609.0386 1.33.183 1.98.777.106 1.29.154 2.72.209.901.0347 1.32.131 2.05.0772-.0427-.72-.317-1.47-.266-2.2-.755-.139-1.55-.189-2.32-.224-.786-.006-1.59-.0151-2.36.153z"/><path d="m237 254c.085.609.0386 1.33.183 1.98.777.106 1.29.154 2.72.209.901.0347 1.32.131 2.05.0772-.0427-.72-.317-1.47-.266-2.2-.755-.139-1.55-.189-2.32-.224-.786-.006-1.59-.0151-2.36.153z"/><path d="m243 254c.085.609.0386 1.33.183 1.98.777.106 1.29.154 2.72.209.901.0347 1.32.131 2.05.0772-.0427-.72-.317-1.47-.266-2.2-.755-.139-1.55-.189-2.32-.224-.786-.006-1.59-.0151-2.36.153z"/><path d="m249 254c.085.609.0386 1.33.183 1.98.777.106 1.29.154 2.72.209.901.0347 1.32.131 2.05.0772-.0427-.72-.317-1.47-.266-2.2-.755-.139-1.55-.189-2.32-.224-.786-.006-1.59-.0151-2.36.153z"/><path d="m256 254c.085.609.0386 1.33.183 1.98.777.106 1.29.154 2.72.209.901.0347 1.32.131 2.05.0772-.0427-.72-.317-1.47-.266-2.2-.755-.139-1.55-.189-2.32-.224-.786-.006-1.59-.0151-2.36.153z"/><path d="m261 254c.085.609.0386 1.33.183 1.98.777.106 1.29.154 2.72.209.901.0347 1.32.131 2.05.0772-.0427-.72-.317-1.47-.266-2.2-.755-.139-1.55-.189-2.32-.224-.786-.006-1.59-.0151-2.36.153z"/><path d="m194 244c.575.218 1.18.605 1.83.793.466-.63.756-1.06 1.49-2.29.463-.773.75-1.1 1.05-1.76-.652-.309-1.44-.428-2.06-.824-.484.595-.909 1.26-1.31 1.93-.383.687-.779 1.39-1 2.15z"/><path d="m195 245c-.596.15-1.32.182-1.95.397-.0212.783-.0131 1.3.0863 2.73.0628.899.0128 1.33.144 2.04.712-.12 1.43-.474 2.16-.502.0565-.765.021-1.56-.028-2.33-.0789-.782-.157-1.59-.407-2.33z"/><path d="m196 251c-.344.509-.861 1.01-1.19 1.6.506.598.858.979 1.88 1.97.646.628.895.982 1.47 1.43.45-.564.747-1.3 1.27-1.81-.468-.608-1.02-1.17-1.57-1.72-.58-.53-1.17-1.08-1.86-1.47z"/></g><g fill="#666" stroke="#ccc" stroke-width=".557"><path d="m198 265c-2.46 3.5-1.09 8.79 2.95 10.1 3.84 1.29 7.77-.329 9.23-4.42.867-2.43-.821-5.91-2.99-7.35-2.94-1.95-7.21-1.2-9.19 1.63z"/><path d="m257 266c-1.33 2.32-1.87 4.78 1.58 7.89 2.96 2.66 9.63.992 10.8-3.74.672-2.61-.695-6.2-3.79-7.4-3.51-1.36-6.84.127-8.64 3.26z"/><path d="m227 266c-1.33 2.32-1.87 4.78 1.58 7.89 2.96 2.66 9.63.992 10.8-3.74.672-2.61-.695-6.2-3.79-7.4-3.51-1.36-6.84.127-8.64 3.26z"/></g><g fill="#808080" stroke="#b3b3b3" stroke-width="1.11"><path d="m212 265c-.44.768-.62 1.58.524 2.62.981.883 3.19.329 3.6-1.24.223-.864-.231-2.06-1.26-2.45-1.17-.452-2.27.0421-2.87 1.08z"/><path d="m220 265c-.44.768-.62 1.58.524 2.62.981.883 3.19.329 3.6-1.24.223-.864-.231-2.06-1.26-2.45-1.17-.452-2.27.0421-2.87 1.08z"/><path d="m242 264c-.694.987-.307 2.48.834 2.86 1.08.363 2.19-.093 2.6-1.25.245-.687-.232-1.67-.843-2.07-.831-.55-2.03-.339-2.6.459z"/><path d="m250 265c-.694.987-.307 2.48.834 2.86 1.08.363 2.19-.0929 2.6-1.25.245-.687-.232-1.67-.843-2.07-.831-.55-2.03-.339-2.6.459z"/></g><g fill="#fff" stroke="#b3b3b3" stroke-width=".557"><path d="m201 268c-.551.96-.776 1.98.655 3.27 1.23 1.1 3.99.411 4.5-1.55.279-1.08-.288-2.57-1.57-3.07-1.46-.565-2.84.0526-3.58 1.35z"/><path d="m236 268c-.29-1.07-.852-1.95-2.77-1.85-1.65.0859-3.11 2.53-2.08 4.28.567.961 2.02 1.61 3.28 1.06 1.43-.631 1.97-2.04 1.58-3.49z"/><path d="m264 266c-1.07-.283-2.11-.236-2.99 1.48-.749 1.47.636 3.96 2.66 3.94 1.12-.0105 2.41-.944 2.56-2.31.169-1.55-.785-2.73-2.23-3.11z"/></g><g transform="translate(0 22.3)" fill="#ccc" stroke="#999" stroke-width=".209"><path d="m201 242c-.325.462-.144 1.16.39 1.34.507.17 1.03-.0435 1.22-.584.115-.322-.108-.781-.395-.971-.389-.257-.952-.159-1.21.215z"/><path d="m199 243c-.325.462-.144 1.16.39 1.34.507.17 1.03-.0435 1.22-.584.115-.322-.108-.781-.395-.971-.389-.257-.952-.159-1.21.215z"/><path d="m198 246c-.325.462-.144 1.16.39 1.34.507.17 1.03-.0435 1.22-.584.115-.322-.108-.781-.395-.971-.389-.257-.952-.159-1.21.215z"/><path d="m199 249c-.325.462-.144 1.16.39 1.34.507.17 1.03-.0435 1.22-.584.115-.322-.108-.781-.395-.971-.389-.257-.952-.159-1.21.215z"/><path d="m201 251c-.325.462-.144 1.16.39 1.34.507.17 1.03-.0435 1.22-.584.115-.322-.108-.781-.395-.971-.389-.257-.952-.159-1.21.215z"/><path d="m201 251c-.325.462-.144 1.16.39 1.34.507.17 1.03-.0435 1.22-.584.115-.322-.108-.781-.395-.971-.389-.257-.952-.159-1.21.215z"/><path d="m204 251c-.325.462-.144 1.16.39 1.34.507.17 1.03-.0435 1.22-.584.115-.322-.108-.781-.395-.971-.389-.257-.952-.159-1.21.215z"/><path d="m204 251c-.325.462-.144 1.16.39 1.34.507.17 1.03-.0435 1.22-.584.115-.322-.108-.781-.395-.971-.389-.257-.952-.159-1.21.215z"/><path d="m206 249c-.325.462-.144 1.16.39 1.34.507.17 1.03-.0435 1.22-.584.115-.322-.108-.781-.395-.971-.389-.257-.952-.159-1.21.215z"/><path d="m207 247c-.325.462-.144 1.16.39 1.34.507.17 1.03-.0435 1.22-.584.115-.322-.108-.781-.395-.971-.389-.257-.952-.159-1.21.215z"/><path d="m207 244c-.325.462-.144 1.16.39 1.34.507.17 1.03-.0435 1.22-.584.115-.322-.108-.781-.395-.971-.389-.257-.952-.159-1.21.215z"/><path d="m204 242c-.325.462-.144 1.16.39 1.34.507.17 1.03-.0435 1.22-.584.115-.322-.108-.781-.395-.971-.389-.257-.952-.159-1.21.215z"/><path d="m237 243c-.548-.135-1.13.286-1.11.849.0252.534.412.941.986.925.341-.01.689-.384.762-.719.099-.456-.197-.945-.64-1.05z"/><path d="m235 241c-.548-.135-1.13.286-1.11.849.0252.534.412.941.986.925.341-.01.689-.384.762-.719.099-.456-.197-.945-.64-1.05z"/><path d="m232 242c-.548-.135-1.13.286-1.11.849.0252.534.412.941.986.925.341-.01.689-.384.762-.719.099-.456-.197-.945-.64-1.05z"/><path d="m230 243c-.548-.135-1.13.286-1.11.849.0252.534.412.941.986.925.341-.01.689-.384.762-.719.099-.456-.197-.945-.64-1.05z"/><path d="m229 246c-.548-.135-1.13.286-1.11.849.0252.534.412.941.986.925.341-.01.689-.384.762-.719.099-.456-.197-.945-.64-1.05z"/><path d="m229 246c-.548-.135-1.13.286-1.11.849.0252.534.412.941.986.925.341-.01.689-.384.762-.719.099-.456-.197-.945-.64-1.05z"/><path d="m230 249c-.548-.135-1.13.286-1.11.849.0252.534.412.941.986.925.341-.01.689-.384.762-.719.099-.456-.197-.945-.64-1.05z"/><path d="m230 249c-.548-.135-1.13.286-1.11.849.0252.534.412.941.986.925.341-.01.689-.384.762-.719.099-.456-.197-.945-.64-1.05z"/><path d="m232 250c-.548-.135-1.13.286-1.11.849.0252.534.412.941.986.925.341-.01.689-.384.762-.719.099-.456-.197-.945-.64-1.05z"/><path d="m235 250c-.548-.135-1.13.286-1.11.849.0252.534.412.941.986.925.341-.01.689-.384.762-.719.099-.456-.197-.945-.64-1.05z"/><path d="m237 249c-.548-.135-1.13.286-1.11.849.0252.534.412.941.986.925.341-.01.689-.384.762-.719.099-.456-.197-.945-.64-1.05z"/><path d="m238 246c-.548-.135-1.13.286-1.11.849.0252.534.412.941.986.925.341-.01.689-.384.762-.719.099-.456-.197-.945-.64-1.05z"/><path d="m269 246c-.387-.411-1.11-.375-1.39.111-.269.462-.165 1.01.325 1.31.292.177.787.0517 1.03-.19.331-.329.348-.9.0352-1.23z"/><path d="m267 243c-.387-.411-1.11-.375-1.39.111-.269.462-.165 1.01.325 1.31.292.177.787.0517 1.03-.19.331-.329.348-.9.0352-1.23z"/><path d="m265 242c-.387-.411-1.11-.375-1.39.111-.269.462-.165 1.01.325 1.31.292.177.787.0517 1.03-.19.331-.329.348-.9.0352-1.23z"/><path d="m262 242c-.387-.411-1.11-.375-1.39.111-.269.462-.165 1.01.325 1.31.292.177.787.0517 1.03-.19.331-.329.348-.9.0352-1.23z"/><path d="m260 244c-.387-.411-1.11-.375-1.39.111-.269.462-.165 1.01.325 1.31.292.177.787.0517 1.03-.19.331-.329.348-.9.0352-1.23z"/><path d="m260 244c-.387-.411-1.11-.375-1.39.111-.269.462-.165 1.01.325 1.31.292.177.787.0517 1.03-.19.331-.329.348-.9.0352-1.23z"/><path d="m259 246c-.387-.411-1.11-.375-1.39.111-.269.462-.165 1.01.325 1.31.292.177.787.0517 1.03-.19.331-.329.348-.9.0352-1.23z"/><path d="m259 246c-.387-.411-1.11-.375-1.39.111-.269.462-.165 1.01.325 1.31.292.177.787.0517 1.03-.19.331-.329.348-.9.0352-1.23z"/><path d="m260 249c-.387-.411-1.11-.375-1.39.111-.269.462-.165 1.01.325 1.31.292.177.787.0517 1.03-.19.331-.329.348-.9.0352-1.23z"/><path d="m263 250c-.387-.411-1.11-.375-1.39.111-.269.462-.165 1.01.325 1.31.292.177.787.0517 1.03-.19.331-.329.348-.9.0352-1.23z"/><path d="m266 251c-.387-.411-1.11-.375-1.39.111-.269.462-.165 1.01.325 1.31.292.177.787.0517 1.03-.19.331-.329.348-.9.0352-1.23z"/><path d="m268 249c-.387-.411-1.11-.375-1.39.111-.269.462-.165 1.01.325 1.31.292.177.787.0517 1.03-.19.331-.329.348-.9.0352-1.23z"/></g></g><g transform="matrix(-.198 .236 .236 .198 294 127)" stroke="#000" stroke-linecap="round" stroke-width=".401"><path d="m284 156c-5.55-3.56.401 11.9 3.56 6.01" fill="#f6d2a2" stroke="#000" stroke-linecap="round" stroke-width=".401"/><g fill="#69d7e2"><g fill="#69d7e2" stroke="#000" stroke-linecap="round" stroke-width=".401"><path transform="translate(1.28e-6)" d="m291 144c-1.93-3.4-6.03-.727-4.19 1.85"/><path d="m304 111c-2.12-4.38 5.78-6.43 5.78-.912"/><path d="m330 121c.458 1.11 6.92 8.92.325 25.1-2.22 5.45-8.24 12-15 18.8-4.57 4.57-11 7.02-17.1 3.47-2.26-1.13-5.43-1.37-7.47-2.91-12.1-9.1-8.05-21.7 2.52-21.5-1.82-3.27-3.32-6.97-2.52-11.1l3.57-16.4c7.75-7.75 23.8-8.26 32.1-.408 9.16-5 12 3.96 2.85 4.83"/></g></g><g stroke="#000" stroke-linecap="round" stroke-width=".401"><path d="m303 147c-3.61-2.22-6.95-3.25-9.8-3.31" fill="none"/><path d="m325 117c.509-.339.999-.629 1.47-.888" fill="#69d7e2"/><path d="m311 145c-2.39 9.4 5.67 8.59 5.36-.184" fill="none"/><path d="m331 116c-1.41.152-2.65 1.06-3.61 1.9 2.48.935.537.755 1.32 1.86" fill="none"/><path d="m299 169c-1.22-1.8-3.06-5.69-2.16-6.73.905-1.04 3.4-1.42 4.19 2.22.763 3.51 1.51 5.42.93 6.1-.458.537-1.22.976-2.96-1.58z" fill="#f6d2a2"/><g transform="translate(.0984 .377)"><path d="m297 135c-.141 1.87.441 3.02 1.25 3.24 2.39.642 1.79-.374 1.67-2.82" fill="#fff"/><path d="m300 131c-4.05-1.37-4.98.924-4.76 2.54.0723.539.301.939.502 1.15.24.252.551.562 1 .607.815.0813 2.58.637 3.88.524 1.06-.0914 1.88-.396 2.11-1.09.47-1.4-.142-2.85-2.75-3.73z" fill="#f6d2a2"/><path d="m298 130c-1.87.395.255 1.64.905 1.91.846.352 2.93-.161 2.59-.916s-1.02-.764-1.62-.935c-.603-.172-1.74-.0906-1.88-.06z"/><path d="m299 136c.008.122-.0299.669-.0162.864.0436.618-.0101 1.13.332 2.2" fill="none"/></g><g transform="rotate(6.17 291 138)"><path d="m288 117c12.9-9.8 8.41 24-.641 14-1.98-2.17-2.67-5.29-2.78-8.2.329-3.78 1.62-4.42 3.42-5.8z" fill="#fff"/><path d="m285 127c2.16-1.73 2.51-5.02-.23-6.09-.443.91-1.43 2.4.23 6.09z"/></g><g transform="translate(.869 .483)"><path d="m317 117c-2.69-.57-5.23-.399-7.21 1.59-13.9 13.9 15.8 26.5 15.8 9.05 0-5.13-3-9.44-7.69-10.4z" fill="#fff" stroke-width=".401"/><path d="m313 120c-.857-.351-1.81-.293-2.7.381-3.1 2.35.0322 5.57 2.38 4.82 1.99-.635 1.85-3.61 1.57-4.11-.279-.506-.394-.736-1.25-1.09z" stroke-width=".374"/></g></g></g></g><g transform="rotate(-15 207 388)"><g transform="matrix(.266 0 0 .266 183 165)"><g transform="translate(0 22.3)" fill="#4d4d4d" stroke="#b3b3b3" stroke-width=".278"><path d="m198 238c.242.565.387 1.27.699 1.87.777-.102 1.29-.192 2.68-.514.878-.203 1.31-.221 2-.464-.231-.684-.692-1.33-.835-2.05-.765.0645-1.54.224-2.3.394-.76.201-1.54.404-2.24.769z"/><path d="m205 237c.0329.614-.0746 1.33.0139 1.99.765.171 1.28.263 2.69.439.895.111 1.31.243 2.03.251.0187-.721-.191-1.49-.0782-2.21-.74-.202-1.52-.32-2.29-.42-.783-.0729-1.59-.151-2.37-.0485z"/><path d="m210 238c.0995.607.0702 1.33.231 1.98.779.0872 1.3.123 2.72.144.901.0133 1.33.0992 2.05.0285-.0598-.719-.352-1.46-.318-2.19-.758-.121-1.55-.152-2.32-.169-.786.0127-1.59.0228-2.36.209z"/><path d="m216 237c.085.609.0386 1.33.183 1.98.777.106 1.29.154 2.72.209.901.0347 1.32.131 2.05.0772-.0427-.72-.317-1.47-.266-2.2-.755-.139-1.55-.189-2.32-.224-.786-.006-1.59-.0151-2.36.153z"/><path d="m222 237c.125.602.127 1.32.315 1.97.782.054 1.3.0676 2.73.0279.901-.0251 1.33.0428 2.05-.0586-.0904-.716-.414-1.44-.411-2.18-.762-.0884-1.55-.0861-2.33-.0696-.785.0461-1.59.0905-2.35.309z"/><path d="m228 237c.135.6.149 1.32.347 1.96.783.0409 1.3.0458 2.73-.0177.901-.0402 1.33.0206 2.05-.0929-.102-.714-.438-1.44-.448-2.17-.764-.0757-1.56-.0601-2.33-.0306-.784.0593-1.59.117-2.34.349z"/><path d="m234 237c.005.615-.135 1.32-.0766 1.99.756.206 1.26.321 2.67.561.889.152 1.29.302 2.02.343.0515-.72-.123-1.5.0225-2.22-.73-.236-1.51-.389-2.27-.524-.779-.108-1.58-.222-2.36-.156z"/><path d="m239 238c.173.59.232 1.31.471 1.94.784-.009 1.3-.0365 2.72-.19.896-.0969 1.33-.0634 2.04-.222-.147-.707-.528-1.41-.584-2.14-.767-.0273-1.56.0383-2.33.117-.779.109-1.58.217-2.32.496z"/><path d="m246 237c-.002.615-.15 1.32-.1 1.99.754.215 1.26.335 2.66.592.887.162 1.29.317 2.02.367.0599-.719-.106-1.5.0486-2.22-.727-.244-1.5-.406-2.27-.551-.778-.118-1.57-.241-2.36-.184z"/><path d="m252 238c.196.583.284 1.3.548 1.92.783-.0399 1.3-.0884 2.71-.298.892-.133 1.32-.116 2.03-.303-.175-.7-.583-1.38-.669-2.11-.767.003-1.55.1-2.32.209-.774.14-1.57.28-2.29.588z"/><path d="m258 237c.085.609.0386 1.33.183 1.98.777.106 1.29.154 2.72.209.901.0347 1.32.131 2.05.0772-.0427-.72-.317-1.47-.266-2.2-.755-.139-1.55-.189-2.32-.224-.786-.006-1.59-.0151-2.36.153z"/><path d="m264 237c-.0316.614-.213 1.31-.195 1.98.743.25 1.24.395 2.63.719.878.204 1.27.378 2 .463.0942-.716-.034-1.5.154-2.21-.715-.279-1.48-.478-2.24-.658-.771-.154-1.56-.316-2.35-.296z"/><path d="m272 245c.487-.375 1.14-.692 1.63-1.14-.293-.727-.507-1.2-1.17-2.47-.416-.8-.542-1.21-.947-1.82-.605.394-1.12 1-1.78 1.32.253.724.602 1.44.955 2.13.384.686.776 1.39 1.3 1.98z"/><path d="m271 251c.614-.024 1.33.0938 1.99.0149.182-.762.281-1.27.478-2.69.124-.893.261-1.3.28-2.03-.721-.0291-1.49.17-2.22.0462-.213.737-.342 1.52-.453 2.29-.0841.782-.173 1.58-.0827 2.37z"/><path d="m267 254c.472.394.921.959 1.47 1.35.646-.443 1.06-.754 2.16-1.67.691-.579 1.07-.791 1.57-1.32-.515-.505-1.22-.875-1.67-1.45-.653.404-1.27.898-1.87 1.39-.587.523-1.19 1.06-1.65 1.7z"/><path d="m201 254c.0986.607.0684 1.33.228 1.98.779.0883 1.3.125 2.72.148.901.0145 1.32.101 2.05.0313-.0588-.719-.35-1.46-.315-2.19-.758-.122-1.55-.154-2.32-.172-.786.0116-1.59.0206-2.36.206z"/><path d="m207 254c.137.599.153 1.32.354 1.96.783.0381 1.3.0412 2.73-.0273.9-.0433 1.33.0159 2.05-.1-.105-.714-.443-1.44-.455-2.17-.764-.073-1.56-.0546-2.33-.0225-.784.062-1.59.123-2.34.357z"/><path d="m213 254c.126.602.128 1.32.316 1.97.782.0532 1.3.0663 2.73.0253.901-.026 1.33.0415 2.05-.0606-.091-.716-.415-1.44-.414-2.18-.762-.0877-1.55-.0846-2.33-.0674-.785.0469-1.59.092-2.35.312z"/><path d="m219 254c.085.609.0386 1.33.183 1.98.777.106 1.29.154 2.72.209.901.0347 1.32.131 2.05.0772-.0427-.72-.317-1.47-.266-2.2-.755-.139-1.55-.189-2.32-.224-.786-.006-1.59-.0151-2.36.153z"/><path d="m225 254c.085.609.0386 1.33.183 1.98.777.106 1.29.154 2.72.209.901.0347 1.32.131 2.05.0772-.0427-.72-.317-1.47-.266-2.2-.755-.139-1.55-.189-2.32-.224-.786-.006-1.59-.0151-2.36.153z"/><path d="m231 254c.085.609.0386 1.33.183 1.98.777.106 1.29.154 2.72.209.901.0347 1.32.131 2.05.0772-.0427-.72-.317-1.47-.266-2.2-.755-.139-1.55-.189-2.32-.224-.786-.006-1.59-.0151-2.36.153z"/><path d="m237 254c.085.609.0386 1.33.183 1.98.777.106 1.29.154 2.72.209.901.0347 1.32.131 2.05.0772-.0427-.72-.317-1.47-.266-2.2-.755-.139-1.55-.189-2.32-.224-.786-.006-1.59-.0151-2.36.153z"/><path d="m243 254c.085.609.0386 1.33.183 1.98.777.106 1.29.154 2.72.209.901.0347 1.32.131 2.05.0772-.0427-.72-.317-1.47-.266-2.2-.755-.139-1.55-.189-2.32-.224-.786-.006-1.59-.0151-2.36.153z"/><path d="m249 254c.085.609.0386 1.33.183 1.98.777.106 1.29.154 2.72.209.901.0347 1.32.131 2.05.0772-.0427-.72-.317-1.47-.266-2.2-.755-.139-1.55-.189-2.32-.224-.786-.006-1.59-.0151-2.36.153z"/><path d="m256 254c.085.609.0386 1.33.183 1.98.777.106 1.29.154 2.72.209.901.0347 1.32.131 2.05.0772-.0427-.72-.317-1.47-.266-2.2-.755-.139-1.55-.189-2.32-.224-.786-.006-1.59-.0151-2.36.153z"/><path d="m261 254c.085.609.0386 1.33.183 1.98.777.106 1.29.154 2.72.209.901.0347 1.32.131 2.05.0772-.0427-.72-.317-1.47-.266-2.2-.755-.139-1.55-.189-2.32-.224-.786-.006-1.59-.0151-2.36.153z"/><path d="m194 244c.575.218 1.18.605 1.83.793.466-.63.756-1.06 1.49-2.29.463-.773.75-1.1 1.05-1.76-.652-.309-1.44-.428-2.06-.824-.484.595-.909 1.26-1.31 1.93-.383.687-.779 1.39-1 2.15z"/><path d="m195 245c-.596.15-1.32.182-1.95.397-.0212.783-.0131 1.3.0863 2.73.0628.899.0128 1.33.144 2.04.712-.12 1.43-.474 2.16-.502.0565-.765.021-1.56-.028-2.33-.0789-.782-.157-1.59-.407-2.33z"/><path d="m196 251c-.344.509-.861 1.01-1.19 1.6.506.598.858.979 1.88 1.97.646.628.895.982 1.47 1.43.45-.564.747-1.3 1.27-1.81-.468-.608-1.02-1.17-1.57-1.72-.58-.53-1.17-1.08-1.86-1.47z"/></g><g fill="#666" stroke="#ccc" stroke-width=".557"><path d="m198 265c-2.46 3.5-1.09 8.79 2.95 10.1 3.84 1.29 7.77-.329 9.23-4.42.867-2.43-.821-5.91-2.99-7.35-2.94-1.95-7.21-1.2-9.19 1.63z"/><path d="m257 266c-1.33 2.32-1.87 4.78 1.58 7.89 2.96 2.66 9.63.992 10.8-3.74.672-2.61-.695-6.2-3.79-7.4-3.51-1.36-6.84.127-8.64 3.26z"/><path d="m227 266c-1.33 2.32-1.87 4.78 1.58 7.89 2.96 2.66 9.63.992 10.8-3.74.672-2.61-.695-6.2-3.79-7.4-3.51-1.36-6.84.127-8.64 3.26z"/></g><g fill="#808080" stroke="#b3b3b3" stroke-width="1.11"><path d="m212 265c-.44.768-.62 1.58.524 2.62.981.883 3.19.329 3.6-1.24.223-.864-.231-2.06-1.26-2.45-1.17-.452-2.27.0421-2.87 1.08z"/><path d="m220 265c-.44.768-.62 1.58.524 2.62.981.883 3.19.329 3.6-1.24.223-.864-.231-2.06-1.26-2.45-1.17-.452-2.27.0421-2.87 1.08z"/><path d="m242 264c-.694.987-.307 2.48.834 2.86 1.08.363 2.19-.093 2.6-1.25.245-.687-.232-1.67-.843-2.07-.831-.55-2.03-.339-2.6.459z"/><path d="m250 265c-.694.987-.307 2.48.834 2.86 1.08.363 2.19-.0929 2.6-1.25.245-.687-.232-1.67-.843-2.07-.831-.55-2.03-.339-2.6.459z"/></g><g fill="#fff" stroke="#b3b3b3" stroke-width=".557"><path d="m201 268c-.551.96-.776 1.98.655 3.27 1.23 1.1 3.99.411 4.5-1.55.279-1.08-.288-2.57-1.57-3.07-1.46-.565-2.84.0526-3.58 1.35z"/><path d="m236 268c-.29-1.07-.852-1.95-2.77-1.85-1.65.0859-3.11 2.53-2.08 4.28.567.961 2.02 1.61 3.28 1.06 1.43-.631 1.97-2.04 1.58-3.49z"/><path d="m264 266c-1.07-.283-2.11-.236-2.99 1.48-.749 1.47.636 3.96 2.66 3.94 1.12-.0105 2.41-.944 2.56-2.31.169-1.55-.785-2.73-2.23-3.11z"/></g><g transform="translate(0 22.3)" fill="#ccc" stroke="#999" stroke-width=".209"><path d="m201 242c-.325.462-.144 1.16.39 1.34.507.17 1.03-.0435 1.22-.584.115-.322-.108-.781-.395-.971-.389-.257-.952-.159-1.21.215z"/><path d="m199 243c-.325.462-.144 1.16.39 1.34.507.17 1.03-.0435 1.22-.584.115-.322-.108-.781-.395-.971-.389-.257-.952-.159-1.21.215z"/><path d="m198 246c-.325.462-.144 1.16.39 1.34.507.17 1.03-.0435 1.22-.584.115-.322-.108-.781-.395-.971-.389-.257-.952-.159-1.21.215z"/><path d="m199 249c-.325.462-.144 1.16.39 1.34.507.17 1.03-.0435 1.22-.584.115-.322-.108-.781-.395-.971-.389-.257-.952-.159-1.21.215z"/><path d="m201 251c-.325.462-.144 1.16.39 1.34.507.17 1.03-.0435 1.22-.584.115-.322-.108-.781-.395-.971-.389-.257-.952-.159-1.21.215z"/><path d="m201 251c-.325.462-.144 1.16.39 1.34.507.17 1.03-.0435 1.22-.584.115-.322-.108-.781-.395-.971-.389-.257-.952-.159-1.21.215z"/><path d="m204 251c-.325.462-.144 1.16.39 1.34.507.17 1.03-.0435 1.22-.584.115-.322-.108-.781-.395-.971-.389-.257-.952-.159-1.21.215z"/><path d="m204 251c-.325.462-.144 1.16.39 1.34.507.17 1.03-.0435 1.22-.584.115-.322-.108-.781-.395-.971-.389-.257-.952-.159-1.21.215z"/><path d="m206 249c-.325.462-.144 1.16.39 1.34.507.17 1.03-.0435 1.22-.584.115-.322-.108-.781-.395-.971-.389-.257-.952-.159-1.21.215z"/><path d="m207 247c-.325.462-.144 1.16.39 1.34.507.17 1.03-.0435 1.22-.584.115-.322-.108-.781-.395-.971-.389-.257-.952-.159-1.21.215z"/><path d="m207 244c-.325.462-.144 1.16.39 1.34.507.17 1.03-.0435 1.22-.584.115-.322-.108-.781-.395-.971-.389-.257-.952-.159-1.21.215z"/><path d="m204 242c-.325.462-.144 1.16.39 1.34.507.17 1.03-.0435 1.22-.584.115-.322-.108-.781-.395-.971-.389-.257-.952-.159-1.21.215z"/><path d="m237 243c-.548-.135-1.13.286-1.11.849.0252.534.412.941.986.925.341-.01.689-.384.762-.719.099-.456-.197-.945-.64-1.05z"/><path d="m235 241c-.548-.135-1.13.286-1.11.849.0252.534.412.941.986.925.341-.01.689-.384.762-.719.099-.456-.197-.945-.64-1.05z"/><path d="m232 242c-.548-.135-1.13.286-1.11.849.0252.534.412.941.986.925.341-.01.689-.384.762-.719.099-.456-.197-.945-.64-1.05z"/><path d="m230 243c-.548-.135-1.13.286-1.11.849.0252.534.412.941.986.925.341-.01.689-.384.762-.719.099-.456-.197-.945-.64-1.05z"/><path d="m229 246c-.548-.135-1.13.286-1.11.849.0252.534.412.941.986.925.341-.01.689-.384.762-.719.099-.456-.197-.945-.64-1.05z"/><path d="m229 246c-.548-.135-1.13.286-1.11.849.0252.534.412.941.986.925.341-.01.689-.384.762-.719.099-.456-.197-.945-.64-1.05z"/><path d="m230 249c-.548-.135-1.13.286-1.11.849.0252.534.412.941.986.925.341-.01.689-.384.762-.719.099-.456-.197-.945-.64-1.05z"/><path d="m230 249c-.548-.135-1.13.286-1.11.849.0252.534.412.941.986.925.341-.01.689-.384.762-.719.099-.456-.197-.945-.64-1.05z"/><path d="m232 250c-.548-.135-1.13.286-1.11.849.0252.534.412.941.986.925.341-.01.689-.384.762-.719.099-.456-.197-.945-.64-1.05z"/><path d="m235 250c-.548-.135-1.13.286-1.11.849.0252.534.412.941.986.925.341-.01.689-.384.762-.719.099-.456-.197-.945-.64-1.05z"/><path d="m237 249c-.548-.135-1.13.286-1.11.849.0252.534.412.941.986.925.341-.01.689-.384.762-.719.099-.456-.197-.945-.64-1.05z"/><path d="m238 246c-.548-.135-1.13.286-1.11.849.0252.534.412.941.986.925.341-.01.689-.384.762-.719.099-.456-.197-.945-.64-1.05z"/><path d="m269 246c-.387-.411-1.11-.375-1.39.111-.269.462-.165 1.01.325 1.31.292.177.787.0517 1.03-.19.331-.329.348-.9.0352-1.23z"/><path d="m267 243c-.387-.411-1.11-.375-1.39.111-.269.462-.165 1.01.325 1.31.292.177.787.0517 1.03-.19.331-.329.348-.9.0352-1.23z"/><path d="m265 242c-.387-.411-1.11-.375-1.39.111-.269.462-.165 1.01.325 1.31.292.177.787.0517 1.03-.19.331-.329.348-.9.0352-1.23z"/><path d="m262 242c-.387-.411-1.11-.375-1.39.111-.269.462-.165 1.01.325 1.31.292.177.787.0517 1.03-.19.331-.329.348-.9.0352-1.23z"/><path d="m260 244c-.387-.411-1.11-.375-1.39.111-.269.462-.165 1.01.325 1.31.292.177.787.0517 1.03-.19.331-.329.348-.9.0352-1.23z"/><path d="m260 244c-.387-.411-1.11-.375-1.39.111-.269.462-.165 1.01.325 1.31.292.177.787.0517 1.03-.19.331-.329.348-.9.0352-1.23z"/><path d="m259 246c-.387-.411-1.11-.375-1.39.111-.269.462-.165 1.01.325 1.31.292.177.787.0517 1.03-.19.331-.329.348-.9.0352-1.23z"/><path d="m259 246c-.387-.411-1.11-.375-1.39.111-.269.462-.165 1.01.325 1.31.292.177.787.0517 1.03-.19.331-.329.348-.9.0352-1.23z"/><path d="m260 249c-.387-.411-1.11-.375-1.39.111-.269.462-.165 1.01.325 1.31.292.177.787.0517 1.03-.19.331-.329.348-.9.0352-1.23z"/><path d="m263 250c-.387-.411-1.11-.375-1.39.111-.269.462-.165 1.01.325 1.31.292.177.787.0517 1.03-.19.331-.329.348-.9.0352-1.23z"/><path d="m266 251c-.387-.411-1.11-.375-1.39.111-.269.462-.165 1.01.325 1.31.292.177.787.0517 1.03-.19.331-.329.348-.9.0352-1.23z"/><path d="m268 249c-.387-.411-1.11-.375-1.39.111-.269.462-.165 1.01.325 1.31.292.177.787.0517 1.03-.19.331-.329.348-.9.0352-1.23z"/></g></g><g transform="matrix(.312 0 0 .312 149 181)" stroke="#000" stroke-linecap="round" stroke-width=".401"><g><path d="m284 156c-6.49-7-5.67 8.69 3.56 6.01" fill="#f6d2a2"/><path d="m325 117c.509-.339.999-.629 1.47-.888" fill="#69d7e2"/><g fill="#cfa"><path d="m290 144c-3.35-5.1-7.54-3.7-3.41 1.61"/><path transform="translate(-2.55e-7 1.26e-5)" d="m304 111c-2.12-4.38 5.78-6.43 5.78-.912"/><path transform="translate(-2.55e-7 1.26e-5)" d="m329 121c4.98 16.6 10.4 39.6-11.4 46.7-6.13 2.02-13.4 3.97-19.5.415-2.26-1.13-5.43-1.37-7.47-2.91-12.1-9.1-8.05-21.7 2.52-21.5-1.82-3.27-3.32-6.97-2.52-11.1l3.57-16.4c7.75-7.75 23.8-8.26 32.1-.408 9.16-5 11.9 4.23 2.74 5.1"/><path d="m303 147c-3.61-2.22-6.95-3.25-9.8-3.31"/><path d="m322 149c-9.34 2.63-4.6 9.2 2.84 4.55"/><path d="m331 116c-1.41.152-2.65 1.06-3.61 1.9 2.48.935.537.755 1.32 1.86"/></g><path d="m298 168c-1.34-1.71-3.45-5.47-2.62-6.57.831-1.1 2.17-1.11 4.33 1.92 2.06 2.89 2.95 6.64 1.61 6.93-.627.136-1.41.145-3.32-2.29z" fill="#f6d2a2"/></g><g transform="translate(.0984 .377)"><path d="m297 135c-.141 1.87.441 3.02 1.25 3.24 2.39.642 1.79-.374 1.67-2.82" fill="#fff"/><path d="m300 131c-4.05-1.37-4.98.924-4.76 2.54.0723.539.301.939.502 1.15.24.252.551.562 1 .607.815.0813 2.58.637 3.88.524 1.06-.0914 1.88-.396 2.11-1.09.47-1.4-.142-2.85-2.75-3.73z" fill="#f6d2a2"/><path d="m298 130c-1.87.395.255 1.64.905 1.91.846.352 2.93-.161 2.59-.916s-1.02-.764-1.62-.935c-.603-.172-1.74-.0906-1.88-.06z"/><path d="m299 136c.008.122-.0299.669-.0162.864.0436.618-.0101 1.13.332 2.2" fill="none"/></g><g transform="rotate(6.17 291 138)"><path d="m288 117c12.9-9.8 8.41 24-.641 14-1.98-2.17-2.67-5.29-2.78-8.2.329-3.78 1.62-4.42 3.42-5.8z" fill="#fff"/><path d="m285 127c2.16-1.73 2.51-5.02-.23-6.09-.443.91-1.43 2.4.23 6.09z"/></g><g transform="translate(.869 .483)"><path d="m317 117c-2.69-.57-5.23-.399-7.21 1.59-13.9 13.9 15.8 26.5 15.8 9.05 0-5.13-3-9.44-7.69-10.4z" fill="#fff"/><path d="m321 124c-.956-.437-1.99-.447-2.9.205-3.18 2.27.45 5.94 2.95 5.31 2.11-.528 1.74-3.71 1.4-4.27s-.482-.814-1.44-1.25z"/></g></g></g><g transform="translate(-40.4 -2.2)"><g transform="matrix(.266 0 0 .266 140 165)"><g transform="translate(0 22.3)" fill="#4d4d4d" stroke="#b3b3b3" stroke-width=".278"><path d="m198 238c.242.565.387 1.27.699 1.87.777-.102 1.29-.192 2.68-.514.878-.203 1.31-.221 2-.464-.231-.684-.692-1.33-.835-2.05-.765.0645-1.54.224-2.3.394-.76.201-1.54.404-2.24.769z"/><path d="m205 237c.0329.614-.0746 1.33.0139 1.99.765.171 1.28.263 2.69.439.895.111 1.31.243 2.03.251.0187-.721-.191-1.49-.0782-2.21-.74-.202-1.52-.32-2.29-.42-.783-.0729-1.59-.151-2.37-.0485z"/><path d="m210 238c.0995.607.0702 1.33.231 1.98.779.0872 1.3.123 2.72.144.901.0133 1.33.0992 2.05.0285-.0598-.719-.352-1.46-.318-2.19-.758-.121-1.55-.152-2.32-.169-.786.0127-1.59.0228-2.36.209z"/><path d="m216 237c.085.609.0386 1.33.183 1.98.777.106 1.29.154 2.72.209.901.0347 1.32.131 2.05.0772-.0427-.72-.317-1.47-.266-2.2-.755-.139-1.55-.189-2.32-.224-.786-.006-1.59-.0151-2.36.153z"/><path d="m222 237c.125.602.127 1.32.315 1.97.782.054 1.3.0676 2.73.0279.901-.0251 1.33.0428 2.05-.0586-.0904-.716-.414-1.44-.411-2.18-.762-.0884-1.55-.0861-2.33-.0696-.785.0461-1.59.0905-2.35.309z"/><path d="m228 237c.135.6.149 1.32.347 1.96.783.0409 1.3.0458 2.73-.0177.901-.0402 1.33.0206 2.05-.0929-.102-.714-.438-1.44-.448-2.17-.764-.0757-1.56-.0601-2.33-.0306-.784.0593-1.59.117-2.34.349z"/><path d="m234 237c.005.615-.135 1.32-.0766 1.99.756.206 1.26.321 2.67.561.889.152 1.29.302 2.02.343.0515-.72-.123-1.5.0225-2.22-.73-.236-1.51-.389-2.27-.524-.779-.108-1.58-.222-2.36-.156z"/><path d="m239 238c.173.59.232 1.31.471 1.94.784-.009 1.3-.0365 2.72-.19.896-.0969 1.33-.0634 2.04-.222-.147-.707-.528-1.41-.584-2.14-.767-.0273-1.56.0383-2.33.117-.779.109-1.58.217-2.32.496z"/><path d="m246 237c-.002.615-.15 1.32-.1 1.99.754.215 1.26.335 2.66.592.887.162 1.29.317 2.02.367.0599-.719-.106-1.5.0486-2.22-.727-.244-1.5-.406-2.27-.551-.778-.118-1.57-.241-2.36-.184z"/><path d="m252 238c.196.583.284 1.3.548 1.92.783-.0399 1.3-.0884 2.71-.298.892-.133 1.32-.116 2.03-.303-.175-.7-.583-1.38-.669-2.11-.767.003-1.55.1-2.32.209-.774.14-1.57.28-2.29.588z"/><path d="m258 237c.085.609.0386 1.33.183 1.98.777.106 1.29.154 2.72.209.901.0347 1.32.131 2.05.0772-.0427-.72-.317-1.47-.266-2.2-.755-.139-1.55-.189-2.32-.224-.786-.006-1.59-.0151-2.36.153z"/><path d="m264 237c-.0316.614-.213 1.31-.195 1.98.743.25 1.24.395 2.63.719.878.204 1.27.378 2 .463.0942-.716-.034-1.5.154-2.21-.715-.279-1.48-.478-2.24-.658-.771-.154-1.56-.316-2.35-.296z"/><path d="m272 245c.487-.375 1.14-.692 1.63-1.14-.293-.727-.507-1.2-1.17-2.47-.416-.8-.542-1.21-.947-1.82-.605.394-1.12 1-1.78 1.32.253.724.602 1.44.955 2.13.384.686.776 1.39 1.3 1.98z"/><path d="m271 251c.614-.024 1.33.0938 1.99.0149.182-.762.281-1.27.478-2.69.124-.893.261-1.3.28-2.03-.721-.0291-1.49.17-2.22.0462-.213.737-.342 1.52-.453 2.29-.0841.782-.173 1.58-.0827 2.37z"/><path d="m267 254c.472.394.921.959 1.47 1.35.646-.443 1.06-.754 2.16-1.67.691-.579 1.07-.791 1.57-1.32-.515-.505-1.22-.875-1.67-1.45-.653.404-1.27.898-1.87 1.39-.587.523-1.19 1.06-1.65 1.7z"/><path d="m201 254c.0986.607.0684 1.33.228 1.98.779.0883 1.3.125 2.72.148.901.0145 1.32.101 2.05.0313-.0588-.719-.35-1.46-.315-2.19-.758-.122-1.55-.154-2.32-.172-.786.0116-1.59.0206-2.36.206z"/><path d="m207 254c.137.599.153 1.32.354 1.96.783.0381 1.3.0412 2.73-.0273.9-.0433 1.33.0159 2.05-.1-.105-.714-.443-1.44-.455-2.17-.764-.073-1.56-.0546-2.33-.0225-.784.062-1.59.123-2.34.357z"/><path d="m213 254c.126.602.128 1.32.316 1.97.782.0532 1.3.0663 2.73.0253.901-.026 1.33.0415 2.05-.0606-.091-.716-.415-1.44-.414-2.18-.762-.0877-1.55-.0846-2.33-.0674-.785.0469-1.59.092-2.35.312z"/><path d="m219 254c.085.609.0386 1.33.183 1.98.777.106 1.29.154 2.72.209.901.0347 1.32.131 2.05.0772-.0427-.72-.317-1.47-.266-2.2-.755-.139-1.55-.189-2.32-.224-.786-.006-1.59-.0151-2.36.153z"/><path d="m225 254c.085.609.0386 1.33.183 1.98.777.106 1.29.154 2.72.209.901.0347 1.32.131 2.05.0772-.0427-.72-.317-1.47-.266-2.2-.755-.139-1.55-.189-2.32-.224-.786-.006-1.59-.0151-2.36.153z"/><path d="m231 254c.085.609.0386 1.33.183 1.98.777.106 1.29.154 2.72.209.901.0347 1.32.131 2.05.0772-.0427-.72-.317-1.47-.266-2.2-.755-.139-1.55-.189-2.32-.224-.786-.006-1.59-.0151-2.36.153z"/><path d="m237 254c.085.609.0386 1.33.183 1.98.777.106 1.29.154 2.72.209.901.0347 1.32.131 2.05.0772-.0427-.72-.317-1.47-.266-2.2-.755-.139-1.55-.189-2.32-.224-.786-.006-1.59-.0151-2.36.153z"/><path d="m243 254c.085.609.0386 1.33.183 1.98.777.106 1.29.154 2.72.209.901.0347 1.32.131 2.05.0772-.0427-.72-.317-1.47-.266-2.2-.755-.139-1.55-.189-2.32-.224-.786-.006-1.59-.0151-2.36.153z"/><path d="m249 254c.085.609.0386 1.33.183 1.98.777.106 1.29.154 2.72.209.901.0347 1.32.131 2.05.0772-.0427-.72-.317-1.47-.266-2.2-.755-.139-1.55-.189-2.32-.224-.786-.006-1.59-.0151-2.36.153z"/><path d="m256 254c.085.609.0386 1.33.183 1.98.777.106 1.29.154 2.72.209.901.0347 1.32.131 2.05.0772-.0427-.72-.317-1.47-.266-2.2-.755-.139-1.55-.189-2.32-.224-.786-.006-1.59-.0151-2.36.153z"/><path d="m261 254c.085.609.0386 1.33.183 1.98.777.106 1.29.154 2.72.209.901.0347 1.32.131 2.05.0772-.0427-.72-.317-1.47-.266-2.2-.755-.139-1.55-.189-2.32-.224-.786-.006-1.59-.0151-2.36.153z"/><path d="m194 244c.575.218 1.18.605 1.83.793.466-.63.756-1.06 1.49-2.29.463-.773.75-1.1 1.05-1.76-.652-.309-1.44-.428-2.06-.824-.484.595-.909 1.26-1.31 1.93-.383.687-.779 1.39-1 2.15z"/><path d="m195 245c-.596.15-1.32.182-1.95.397-.0212.783-.0131 1.3.0863 2.73.0628.899.0128 1.33.144 2.04.712-.12 1.43-.474 2.16-.502.0565-.765.021-1.56-.028-2.33-.0789-.782-.157-1.59-.407-2.33z"/><path d="m196 251c-.344.509-.861 1.01-1.19 1.6.506.598.858.979 1.88 1.97.646.628.895.982 1.47 1.43.45-.564.747-1.3 1.27-1.81-.468-.608-1.02-1.17-1.57-1.72-.58-.53-1.17-1.08-1.86-1.47z"/></g><g fill="#666" stroke="#ccc" stroke-width=".557"><path d="m198 265c-2.46 3.5-1.09 8.79 2.95 10.1 3.84 1.29 7.77-.329 9.23-4.42.867-2.43-.821-5.91-2.99-7.35-2.94-1.95-7.21-1.2-9.19 1.63z"/><path d="m257 266c-1.33 2.32-1.87 4.78 1.58 7.89 2.96 2.66 9.63.992 10.8-3.74.672-2.61-.695-6.2-3.79-7.4-3.51-1.36-6.84.127-8.64 3.26z"/><path d="m227 266c-1.33 2.32-1.87 4.78 1.58 7.89 2.96 2.66 9.63.992 10.8-3.74.672-2.61-.695-6.2-3.79-7.4-3.51-1.36-6.84.127-8.64 3.26z"/></g><g fill="#808080" stroke="#b3b3b3" stroke-width="1.11"><path d="m212 265c-.44.768-.62 1.58.524 2.62.981.883 3.19.329 3.6-1.24.223-.864-.231-2.06-1.26-2.45-1.17-.452-2.27.0421-2.87 1.08z"/><path d="m220 265c-.44.768-.62 1.58.524 2.62.981.883 3.19.329 3.6-1.24.223-.864-.231-2.06-1.26-2.45-1.17-.452-2.27.0421-2.87 1.08z"/><path d="m242 264c-.694.987-.307 2.48.834 2.86 1.08.363 2.19-.093 2.6-1.25.245-.687-.232-1.67-.843-2.07-.831-.55-2.03-.339-2.6.459z"/><path d="m250 265c-.694.987-.307 2.48.834 2.86 1.08.363 2.19-.0929 2.6-1.25.245-.687-.232-1.67-.843-2.07-.831-.55-2.03-.339-2.6.459z"/></g><g fill="#fff" stroke="#b3b3b3" stroke-width=".557"><path d="m201 268c-.551.96-.776 1.98.655 3.27 1.23 1.1 3.99.411 4.5-1.55.279-1.08-.288-2.57-1.57-3.07-1.46-.565-2.84.0526-3.58 1.35z"/><path d="m236 268c-.29-1.07-.852-1.95-2.77-1.85-1.65.0859-3.11 2.53-2.08 4.28.567.961 2.02 1.61 3.28 1.06 1.43-.631 1.97-2.04 1.58-3.49z"/><path d="m264 266c-1.07-.283-2.11-.236-2.99 1.48-.749 1.47.636 3.96 2.66 3.94 1.12-.0105 2.41-.944 2.56-2.31.169-1.55-.785-2.73-2.23-3.11z"/></g><g transform="translate(0 22.3)" fill="#ccc" stroke="#999" stroke-width=".209"><path d="m201 242c-.325.462-.144 1.16.39 1.34.507.17 1.03-.0435 1.22-.584.115-.322-.108-.781-.395-.971-.389-.257-.952-.159-1.21.215z"/><path d="m199 243c-.325.462-.144 1.16.39 1.34.507.17 1.03-.0435 1.22-.584.115-.322-.108-.781-.395-.971-.389-.257-.952-.159-1.21.215z"/><path d="m198 246c-.325.462-.144 1.16.39 1.34.507.17 1.03-.0435 1.22-.584.115-.322-.108-.781-.395-.971-.389-.257-.952-.159-1.21.215z"/><path d="m199 249c-.325.462-.144 1.16.39 1.34.507.17 1.03-.0435 1.22-.584.115-.322-.108-.781-.395-.971-.389-.257-.952-.159-1.21.215z"/><path d="m201 251c-.325.462-.144 1.16.39 1.34.507.17 1.03-.0435 1.22-.584.115-.322-.108-.781-.395-.971-.389-.257-.952-.159-1.21.215z"/><path d="m201 251c-.325.462-.144 1.16.39 1.34.507.17 1.03-.0435 1.22-.584.115-.322-.108-.781-.395-.971-.389-.257-.952-.159-1.21.215z"/><path d="m204 251c-.325.462-.144 1.16.39 1.34.507.17 1.03-.0435 1.22-.584.115-.322-.108-.781-.395-.971-.389-.257-.952-.159-1.21.215z"/><path d="m204 251c-.325.462-.144 1.16.39 1.34.507.17 1.03-.0435 1.22-.584.115-.322-.108-.781-.395-.971-.389-.257-.952-.159-1.21.215z"/><path d="m206 249c-.325.462-.144 1.16.39 1.34.507.17 1.03-.0435 1.22-.584.115-.322-.108-.781-.395-.971-.389-.257-.952-.159-1.21.215z"/><path d="m207 247c-.325.462-.144 1.16.39 1.34.507.17 1.03-.0435 1.22-.584.115-.322-.108-.781-.395-.971-.389-.257-.952-.159-1.21.215z"/><path d="m207 244c-.325.462-.144 1.16.39 1.34.507.17 1.03-.0435 1.22-.584.115-.322-.108-.781-.395-.971-.389-.257-.952-.159-1.21.215z"/><path d="m204 242c-.325.462-.144 1.16.39 1.34.507.17 1.03-.0435 1.22-.584.115-.322-.108-.781-.395-.971-.389-.257-.952-.159-1.21.215z"/><path d="m237 243c-.548-.135-1.13.286-1.11.849.0252.534.412.941.986.925.341-.01.689-.384.762-.719.099-.456-.197-.945-.64-1.05z"/><path d="m235 241c-.548-.135-1.13.286-1.11.849.0252.534.412.941.986.925.341-.01.689-.384.762-.719.099-.456-.197-.945-.64-1.05z"/><path d="m232 242c-.548-.135-1.13.286-1.11.849.0252.534.412.941.986.925.341-.01.689-.384.762-.719.099-.456-.197-.945-.64-1.05z"/><path d="m230 243c-.548-.135-1.13.286-1.11.849.0252.534.412.941.986.925.341-.01.689-.384.762-.719.099-.456-.197-.945-.64-1.05z"/><path d="m229 246c-.548-.135-1.13.286-1.11.849.0252.534.412.941.986.925.341-.01.689-.384.762-.719.099-.456-.197-.945-.64-1.05z"/><path d="m229 246c-.548-.135-1.13.286-1.11.849.0252.534.412.941.986.925.341-.01.689-.384.762-.719.099-.456-.197-.945-.64-1.05z"/><path d="m230 249c-.548-.135-1.13.286-1.11.849.0252.534.412.941.986.925.341-.01.689-.384.762-.719.099-.456-.197-.945-.64-1.05z"/><path d="m230 249c-.548-.135-1.13.286-1.11.849.0252.534.412.941.986.925.341-.01.689-.384.762-.719.099-.456-.197-.945-.64-1.05z"/><path d="m232 250c-.548-.135-1.13.286-1.11.849.0252.534.412.941.986.925.341-.01.689-.384.762-.719.099-.456-.197-.945-.64-1.05z"/><path d="m235 250c-.548-.135-1.13.286-1.11.849.0252.534.412.941.986.925.341-.01.689-.384.762-.719.099-.456-.197-.945-.64-1.05z"/><path d="m237 249c-.548-.135-1.13.286-1.11.849.0252.534.412.941.986.925.341-.01.689-.384.762-.719.099-.456-.197-.945-.64-1.05z"/><path d="m238 246c-.548-.135-1.13.286-1.11.849.0252.534.412.941.986.925.341-.01.689-.384.762-.719.099-.456-.197-.945-.64-1.05z"/><path d="m269 246c-.387-.411-1.11-.375-1.39.111-.269.462-.165 1.01.325 1.31.292.177.787.0517 1.03-.19.331-.329.348-.9.0352-1.23z"/><path d="m267 243c-.387-.411-1.11-.375-1.39.111-.269.462-.165 1.01.325 1.31.292.177.787.0517 1.03-.19.331-.329.348-.9.0352-1.23z"/><path d="m265 242c-.387-.411-1.11-.375-1.39.111-.269.462-.165 1.01.325 1.31.292.177.787.0517 1.03-.19.331-.329.348-.9.0352-1.23z"/><path d="m262 242c-.387-.411-1.11-.375-1.39.111-.269.462-.165 1.01.325 1.31.292.177.787.0517 1.03-.19.331-.329.348-.9.0352-1.23z"/><path d="m260 244c-.387-.411-1.11-.375-1.39.111-.269.462-.165 1.01.325 1.31.292.177.787.0517 1.03-.19.331-.329.348-.9.0352-1.23z"/><path d="m260 244c-.387-.411-1.11-.375-1.39.111-.269.462-.165 1.01.325 1.31.292.177.787.0517 1.03-.19.331-.329.348-.9.0352-1.23z"/><path d="m259 246c-.387-.411-1.11-.375-1.39.111-.269.462-.165 1.01.325 1.31.292.177.787.0517 1.03-.19.331-.329.348-.9.0352-1.23z"/><path d="m259 246c-.387-.411-1.11-.375-1.39.111-.269.462-.165 1.01.325 1.31.292.177.787.0517 1.03-.19.331-.329.348-.9.0352-1.23z"/><path d="m260 249c-.387-.411-1.11-.375-1.39.111-.269.462-.165 1.01.325 1.31.292.177.787.0517 1.03-.19.331-.329.348-.9.0352-1.23z"/><path d="m263 250c-.387-.411-1.11-.375-1.39.111-.269.462-.165 1.01.325 1.31.292.177.787.0517 1.03-.19.331-.329.348-.9.0352-1.23z"/><path d="m266 251c-.387-.411-1.11-.375-1.39.111-.269.462-.165 1.01.325 1.31.292.177.787.0517 1.03-.19.331-.329.348-.9.0352-1.23z"/><path d="m268 249c-.387-.411-1.11-.375-1.39.111-.269.462-.165 1.01.325 1.31.292.177.787.0517 1.03-.19.331-.329.348-.9.0352-1.23z"/></g></g><g transform="matrix(-.312 0 0 .312 298 181)" stroke="#000" stroke-linecap="round" stroke-width=".401"><g><path d="m284 156c-6.49-7-5.67 8.69 3.56 6.01" fill="#f6d2a2"/><path d="m325 117c.509-.339.999-.629 1.47-.888" fill="#69d7e2"/><g fill="#ffe680"><path d="m290 144c-3.35-5.1-7.54-3.7-3.41 1.61"/><path transform="translate(-2.55e-7 1.26e-5)" d="m304 111c-2.12-4.38 5.78-6.43 5.78-.912"/><path transform="translate(-2.55e-7 1.26e-5)" d="m329 121c4.98 16.6 10.4 39.6-11.4 46.7-6.13 2.02-13.4 3.97-19.5.415-2.26-1.13-5.43-1.37-7.47-2.91-12.1-9.1-8.05-21.7 2.52-21.5-1.82-3.27-3.32-6.97-2.52-11.1l3.57-16.4c7.75-7.75 23.8-8.26 32.1-.408 9.16-5 11.9 4.23 2.74 5.1"/><path d="m303 147c-3.61-2.22-6.95-3.25-9.8-3.31"/><path d="m322 149c-9.34 2.63-4.6 9.2 2.84 4.55"/><path d="m331 116c-1.41.152-2.65 1.06-3.61 1.9 2.48.935.537.755 1.32 1.86"/></g><path d="m298 168c-1.34-1.71-3.45-5.47-2.62-6.57.831-1.1 2.17-1.11 4.33 1.92 2.06 2.89 2.95 6.64 1.61 6.93-.627.136-1.41.145-3.32-2.29z" fill="#f6d2a2"/></g><g transform="translate(.0984 .377)"><path d="m297 135c-.141 1.87.441 3.02 1.25 3.24 2.39.642 1.79-.374 1.67-2.82" fill="#fff"/><path d="m300 131c-4.05-1.37-4.98.924-4.76 2.54.0723.539.301.939.502 1.15.24.252.551.562 1 .607.815.0813 2.58.637 3.88.524 1.06-.0914 1.88-.396 2.11-1.09.47-1.4-.142-2.85-2.75-3.73z" fill="#f6d2a2"/><path d="m298 130c-1.87.395.255 1.64.905 1.91.846.352 2.93-.161 2.59-.916s-1.02-.764-1.62-.935c-.603-.172-1.74-.0906-1.88-.06z"/><path d="m299 136c.008.122-.0299.669-.0162.864.0436.618-.0101 1.13.332 2.2" fill="none"/></g><g transform="rotate(6.17 291 138)"><path d="m288 117c12.9-9.8 8.41 24-.641 14-1.98-2.17-2.67-5.29-2.78-8.2.329-3.78 1.62-4.42 3.42-5.8z" fill="#fff"/><path d="m285 127c2.16-1.73 2.51-5.02-.23-6.09-.443.91-1.43 2.4.23 6.09z"/></g><g transform="translate(.869 .483)"><path d="m317 117c-2.69-.57-5.23-.399-7.21 1.59-13.9 13.9 15.8 26.5 15.8 9.05 0-5.13-3-9.44-7.69-10.4z" fill="#fff"/><path d="m321 124c-.956-.437-1.99-.447-2.9.205-3.18 2.27.45 5.94 2.95 5.31 2.11-.528 1.74-3.71 1.4-4.27s-.482-.814-1.44-1.25z"/></g></g></g><g transform="translate(-40.4 -2.07)"><g transform="matrix(.266 0 0 .266 161 165)"><g transform="translate(0 22.3)" fill="#4d4d4d" stroke="#b3b3b3" stroke-width=".278"><path d="m198 238c.242.565.387 1.27.699 1.87.777-.102 1.29-.192 2.68-.514.878-.203 1.31-.221 2-.464-.231-.684-.692-1.33-.835-2.05-.765.0645-1.54.224-2.3.394-.76.201-1.54.404-2.24.769z"/><path d="m205 237c.0329.614-.0746 1.33.0139 1.99.765.171 1.28.263 2.69.439.895.111 1.31.243 2.03.251.0187-.721-.191-1.49-.0782-2.21-.74-.202-1.52-.32-2.29-.42-.783-.0729-1.59-.151-2.37-.0485z"/><path d="m210 238c.0995.607.0702 1.33.231 1.98.779.0872 1.3.123 2.72.144.901.0133 1.33.0992 2.05.0285-.0598-.719-.352-1.46-.318-2.19-.758-.121-1.55-.152-2.32-.169-.786.0127-1.59.0228-2.36.209z"/><path d="m216 237c.085.609.0386 1.33.183 1.98.777.106 1.29.154 2.72.209.901.0347 1.32.131 2.05.0772-.0427-.72-.317-1.47-.266-2.2-.755-.139-1.55-.189-2.32-.224-.786-.006-1.59-.0151-2.36.153z"/><path d="m222 237c.125.602.127 1.32.315 1.97.782.054 1.3.0676 2.73.0279.901-.0251 1.33.0428 2.05-.0586-.0904-.716-.414-1.44-.411-2.18-.762-.0884-1.55-.0861-2.33-.0696-.785.0461-1.59.0905-2.35.309z"/><path d="m228 237c.135.6.149 1.32.347 1.96.783.0409 1.3.0458 2.73-.0177.901-.0402 1.33.0206 2.05-.0929-.102-.714-.438-1.44-.448-2.17-.764-.0757-1.56-.0601-2.33-.0306-.784.0593-1.59.117-2.34.349z"/><path d="m234 237c.005.615-.135 1.32-.0766 1.99.756.206 1.26.321 2.67.561.889.152 1.29.302 2.02.343.0515-.72-.123-1.5.0225-2.22-.73-.236-1.51-.389-2.27-.524-.779-.108-1.58-.222-2.36-.156z"/><path d="m239 238c.173.59.232 1.31.471 1.94.784-.009 1.3-.0365 2.72-.19.896-.0969 1.33-.0634 2.04-.222-.147-.707-.528-1.41-.584-2.14-.767-.0273-1.56.0383-2.33.117-.779.109-1.58.217-2.32.496z"/><path d="m246 237c-.002.615-.15 1.32-.1 1.99.754.215 1.26.335 2.66.592.887.162 1.29.317 2.02.367.0599-.719-.106-1.5.0486-2.22-.727-.244-1.5-.406-2.27-.551-.778-.118-1.57-.241-2.36-.184z"/><path d="m252 238c.196.583.284 1.3.548 1.92.783-.0399 1.3-.0884 2.71-.298.892-.133 1.32-.116 2.03-.303-.175-.7-.583-1.38-.669-2.11-.767.003-1.55.1-2.32.209-.774.14-1.57.28-2.29.588z"/><path d="m258 237c.085.609.0386 1.33.183 1.98.777.106 1.29.154 2.72.209.901.0347 1.32.131 2.05.0772-.0427-.72-.317-1.47-.266-2.2-.755-.139-1.55-.189-2.32-.224-.786-.006-1.59-.0151-2.36.153z"/><path d="m264 237c-.0316.614-.213 1.31-.195 1.98.743.25 1.24.395 2.63.719.878.204 1.27.378 2 .463.0942-.716-.034-1.5.154-2.21-.715-.279-1.48-.478-2.24-.658-.771-.154-1.56-.316-2.35-.296z"/><path d="m272 245c.487-.375 1.14-.692 1.63-1.14-.293-.727-.507-1.2-1.17-2.47-.416-.8-.542-1.21-.947-1.82-.605.394-1.12 1-1.78 1.32.253.724.602 1.44.955 2.13.384.686.776 1.39 1.3 1.98z"/><path d="m271 251c.614-.024 1.33.0938 1.99.0149.182-.762.281-1.27.478-2.69.124-.893.261-1.3.28-2.03-.721-.0291-1.49.17-2.22.0462-.213.737-.342 1.52-.453 2.29-.0841.782-.173 1.58-.0827 2.37z"/><path d="m267 254c.472.394.921.959 1.47 1.35.646-.443 1.06-.754 2.16-1.67.691-.579 1.07-.791 1.57-1.32-.515-.505-1.22-.875-1.67-1.45-.653.404-1.27.898-1.87 1.39-.587.523-1.19 1.06-1.65 1.7z"/><path d="m201 254c.0986.607.0684 1.33.228 1.98.779.0883 1.3.125 2.72.148.901.0145 1.32.101 2.05.0313-.0588-.719-.35-1.46-.315-2.19-.758-.122-1.55-.154-2.32-.172-.786.0116-1.59.0206-2.36.206z"/><path d="m207 254c.137.599.153 1.32.354 1.96.783.0381 1.3.0412 2.73-.0273.9-.0433 1.33.0159 2.05-.1-.105-.714-.443-1.44-.455-2.17-.764-.073-1.56-.0546-2.33-.0225-.784.062-1.59.123-2.34.357z"/><path d="m213 254c.126.602.128 1.32.316 1.97.782.0532 1.3.0663 2.73.0253.901-.026 1.33.0415 2.05-.0606-.091-.716-.415-1.44-.414-2.18-.762-.0877-1.55-.0846-2.33-.0674-.785.0469-1.59.092-2.35.312z"/><path d="m219 254c.085.609.0386 1.33.183 1.98.777.106 1.29.154 2.72.209.901.0347 1.32.131 2.05.0772-.0427-.72-.317-1.47-.266-2.2-.755-.139-1.55-.189-2.32-.224-.786-.006-1.59-.0151-2.36.153z"/><path d="m225 254c.085.609.0386 1.33.183 1.98.777.106 1.29.154 2.72.209.901.0347 1.32.131 2.05.0772-.0427-.72-.317-1.47-.266-2.2-.755-.139-1.55-.189-2.32-.224-.786-.006-1.59-.0151-2.36.153z"/><path d="m231 254c.085.609.0386 1.33.183 1.98.777.106 1.29.154 2.72.209.901.0347 1.32.131 2.05.0772-.0427-.72-.317-1.47-.266-2.2-.755-.139-1.55-.189-2.32-.224-.786-.006-1.59-.0151-2.36.153z"/><path d="m237 254c.085.609.0386 1.33.183 1.98.777.106 1.29.154 2.72.209.901.0347 1.32.131 2.05.0772-.0427-.72-.317-1.47-.266-2.2-.755-.139-1.55-.189-2.32-.224-.786-.006-1.59-.0151-2.36.153z"/><path d="m243 254c.085.609.0386 1.33.183 1.98.777.106 1.29.154 2.72.209.901.0347 1.32.131 2.05.0772-.0427-.72-.317-1.47-.266-2.2-.755-.139-1.55-.189-2.32-.224-.786-.006-1.59-.0151-2.36.153z"/><path d="m249 254c.085.609.0386 1.33.183 1.98.777.106 1.29.154 2.72.209.901.0347 1.32.131 2.05.0772-.0427-.72-.317-1.47-.266-2.2-.755-.139-1.55-.189-2.32-.224-.786-.006-1.59-.0151-2.36.153z"/><path d="m256 254c.085.609.0386 1.33.183 1.98.777.106 1.29.154 2.72.209.901.0347 1.32.131 2.05.0772-.0427-.72-.317-1.47-.266-2.2-.755-.139-1.55-.189-2.32-.224-.786-.006-1.59-.0151-2.36.153z"/><path d="m261 254c.085.609.0386 1.33.183 1.98.777.106 1.29.154 2.72.209.901.0347 1.32.131 2.05.0772-.0427-.72-.317-1.47-.266-2.2-.755-.139-1.55-.189-2.32-.224-.786-.006-1.59-.0151-2.36.153z"/><path d="m194 244c.575.218 1.18.605 1.83.793.466-.63.756-1.06 1.49-2.29.463-.773.75-1.1 1.05-1.76-.652-.309-1.44-.428-2.06-.824-.484.595-.909 1.26-1.31 1.93-.383.687-.779 1.39-1 2.15z"/><path d="m195 245c-.596.15-1.32.182-1.95.397-.0212.783-.0131 1.3.0863 2.73.0628.899.0128 1.33.144 2.04.712-.12 1.43-.474 2.16-.502.0565-.765.021-1.56-.028-2.33-.0789-.782-.157-1.59-.407-2.33z"/><path d="m196 251c-.344.509-.861 1.01-1.19 1.6.506.598.858.979 1.88 1.97.646.628.895.982 1.47 1.43.45-.564.747-1.3 1.27-1.81-.468-.608-1.02-1.17-1.57-1.72-.58-.53-1.17-1.08-1.86-1.47z"/></g><g fill="#666" stroke="#ccc" stroke-width=".557"><path d="m198 265c-2.46 3.5-1.09 8.79 2.95 10.1 3.84 1.29 7.77-.329 9.23-4.42.867-2.43-.821-5.91-2.99-7.35-2.94-1.95-7.21-1.2-9.19 1.63z"/><path d="m257 266c-1.33 2.32-1.87 4.78 1.58 7.89 2.96 2.66 9.63.992 10.8-3.74.672-2.61-.695-6.2-3.79-7.4-3.51-1.36-6.84.127-8.64 3.26z"/><path d="m227 266c-1.33 2.32-1.87 4.78 1.58 7.89 2.96 2.66 9.63.992 10.8-3.74.672-2.61-.695-6.2-3.79-7.4-3.51-1.36-6.84.127-8.64 3.26z"/></g><g fill="#808080" stroke="#b3b3b3" stroke-width="1.11"><path d="m212 265c-.44.768-.62 1.58.524 2.62.981.883 3.19.329 3.6-1.24.223-.864-.231-2.06-1.26-2.45-1.17-.452-2.27.0421-2.87 1.08z"/><path d="m220 265c-.44.768-.62 1.58.524 2.62.981.883 3.19.329 3.6-1.24.223-.864-.231-2.06-1.26-2.45-1.17-.452-2.27.0421-2.87 1.08z"/><path d="m242 264c-.694.987-.307 2.48.834 2.86 1.08.363 2.19-.093 2.6-1.25.245-.687-.232-1.67-.843-2.07-.831-.55-2.03-.339-2.6.459z"/><path d="m250 265c-.694.987-.307 2.48.834 2.86 1.08.363 2.19-.0929 2.6-1.25.245-.687-.232-1.67-.843-2.07-.831-.55-2.03-.339-2.6.459z"/></g><g fill="#fff" stroke="#b3b3b3" stroke-width=".557"><path d="m201 268c-.551.96-.776 1.98.655 3.27 1.23 1.1 3.99.411 4.5-1.55.279-1.08-.288-2.57-1.57-3.07-1.46-.565-2.84.0526-3.58 1.35z"/><path d="m236 268c-.29-1.07-.852-1.95-2.77-1.85-1.65.0859-3.11 2.53-2.08 4.28.567.961 2.02 1.61 3.28 1.06 1.43-.631 1.97-2.04 1.58-3.49z"/><path d="m264 266c-1.07-.283-2.11-.236-2.99 1.48-.749 1.47.636 3.96 2.66 3.94 1.12-.0105 2.41-.944 2.56-2.31.169-1.55-.785-2.73-2.23-3.11z"/></g><g transform="translate(0 22.3)" fill="#ccc" stroke="#999" stroke-width=".209"><path d="m201 242c-.325.462-.144 1.16.39 1.34.507.17 1.03-.0435 1.22-.584.115-.322-.108-.781-.395-.971-.389-.257-.952-.159-1.21.215z"/><path d="m199 243c-.325.462-.144 1.16.39 1.34.507.17 1.03-.0435 1.22-.584.115-.322-.108-.781-.395-.971-.389-.257-.952-.159-1.21.215z"/><path d="m198 246c-.325.462-.144 1.16.39 1.34.507.17 1.03-.0435 1.22-.584.115-.322-.108-.781-.395-.971-.389-.257-.952-.159-1.21.215z"/><path d="m199 249c-.325.462-.144 1.16.39 1.34.507.17 1.03-.0435 1.22-.584.115-.322-.108-.781-.395-.971-.389-.257-.952-.159-1.21.215z"/><path d="m201 251c-.325.462-.144 1.16.39 1.34.507.17 1.03-.0435 1.22-.584.115-.322-.108-.781-.395-.971-.389-.257-.952-.159-1.21.215z"/><path d="m201 251c-.325.462-.144 1.16.39 1.34.507.17 1.03-.0435 1.22-.584.115-.322-.108-.781-.395-.971-.389-.257-.952-.159-1.21.215z"/><path d="m204 251c-.325.462-.144 1.16.39 1.34.507.17 1.03-.0435 1.22-.584.115-.322-.108-.781-.395-.971-.389-.257-.952-.159-1.21.215z"/><path d="m204 251c-.325.462-.144 1.16.39 1.34.507.17 1.03-.0435 1.22-.584.115-.322-.108-.781-.395-.971-.389-.257-.952-.159-1.21.215z"/><path d="m206 249c-.325.462-.144 1.16.39 1.34.507.17 1.03-.0435 1.22-.584.115-.322-.108-.781-.395-.971-.389-.257-.952-.159-1.21.215z"/><path d="m207 247c-.325.462-.144 1.16.39 1.34.507.17 1.03-.0435 1.22-.584.115-.322-.108-.781-.395-.971-.389-.257-.952-.159-1.21.215z"/><path d="m207 244c-.325.462-.144 1.16.39 1.34.507.17 1.03-.0435 1.22-.584.115-.322-.108-.781-.395-.971-.389-.257-.952-.159-1.21.215z"/><path d="m204 242c-.325.462-.144 1.16.39 1.34.507.17 1.03-.0435 1.22-.584.115-.322-.108-.781-.395-.971-.389-.257-.952-.159-1.21.215z"/><path d="m237 243c-.548-.135-1.13.286-1.11.849.0252.534.412.941.986.925.341-.01.689-.384.762-.719.099-.456-.197-.945-.64-1.05z"/><path d="m235 241c-.548-.135-1.13.286-1.11.849.0252.534.412.941.986.925.341-.01.689-.384.762-.719.099-.456-.197-.945-.64-1.05z"/><path d="m232 242c-.548-.135-1.13.286-1.11.849.0252.534.412.941.986.925.341-.01.689-.384.762-.719.099-.456-.197-.945-.64-1.05z"/><path d="m230 243c-.548-.135-1.13.286-1.11.849.0252.534.412.941.986.925.341-.01.689-.384.762-.719.099-.456-.197-.945-.64-1.05z"/><path d="m229 246c-.548-.135-1.13.286-1.11.849.0252.534.412.941.986.925.341-.01.689-.384.762-.719.099-.456-.197-.945-.64-1.05z"/><path d="m229 246c-.548-.135-1.13.286-1.11.849.0252.534.412.941.986.925.341-.01.689-.384.762-.719.099-.456-.197-.945-.64-1.05z"/><path d="m230 249c-.548-.135-1.13.286-1.11.849.0252.534.412.941.986.925.341-.01.689-.384.762-.719.099-.456-.197-.945-.64-1.05z"/><path d="m230 249c-.548-.135-1.13.286-1.11.849.0252.534.412.941.986.925.341-.01.689-.384.762-.719.099-.456-.197-.945-.64-1.05z"/><path d="m232 250c-.548-.135-1.13.286-1.11.849.0252.534.412.941.986.925.341-.01.689-.384.762-.719.099-.456-.197-.945-.64-1.05z"/><path d="m235 250c-.548-.135-1.13.286-1.11.849.0252.534.412.941.986.925.341-.01.689-.384.762-.719.099-.456-.197-.945-.64-1.05z"/><path d="m237 249c-.548-.135-1.13.286-1.11.849.0252.534.412.941.986.925.341-.01.689-.384.762-.719.099-.456-.197-.945-.64-1.05z"/><path d="m238 246c-.548-.135-1.13.286-1.11.849.0252.534.412.941.986.925.341-.01.689-.384.762-.719.099-.456-.197-.945-.64-1.05z"/><path d="m269 246c-.387-.411-1.11-.375-1.39.111-.269.462-.165 1.01.325 1.31.292.177.787.0517 1.03-.19.331-.329.348-.9.0352-1.23z"/><path d="m267 243c-.387-.411-1.11-.375-1.39.111-.269.462-.165 1.01.325 1.31.292.177.787.0517 1.03-.19.331-.329.348-.9.0352-1.23z"/><path d="m265 242c-.387-.411-1.11-.375-1.39.111-.269.462-.165 1.01.325 1.31.292.177.787.0517 1.03-.19.331-.329.348-.9.0352-1.23z"/><path d="m262 242c-.387-.411-1.11-.375-1.39.111-.269.462-.165 1.01.325 1.31.292.177.787.0517 1.03-.19.331-.329.348-.9.0352-1.23z"/><path d="m260 244c-.387-.411-1.11-.375-1.39.111-.269.462-.165 1.01.325 1.31.292.177.787.0517 1.03-.19.331-.329.348-.9.0352-1.23z"/><path d="m260 244c-.387-.411-1.11-.375-1.39.111-.269.462-.165 1.01.325 1.31.292.177.787.0517 1.03-.19.331-.329.348-.9.0352-1.23z"/><path d="m259 246c-.387-.411-1.11-.375-1.39.111-.269.462-.165 1.01.325 1.31.292.177.787.0517 1.03-.19.331-.329.348-.9.0352-1.23z"/><path d="m259 246c-.387-.411-1.11-.375-1.39.111-.269.462-.165 1.01.325 1.31.292.177.787.0517 1.03-.19.331-.329.348-.9.0352-1.23z"/><path d="m260 249c-.387-.411-1.11-.375-1.39.111-.269.462-.165 1.01.325 1.31.292.177.787.0517 1.03-.19.331-.329.348-.9.0352-1.23z"/><path d="m263 250c-.387-.411-1.11-.375-1.39.111-.269.462-.165 1.01.325 1.31.292.177.787.0517 1.03-.19.331-.329.348-.9.0352-1.23z"/><path d="m266 251c-.387-.411-1.11-.375-1.39.111-.269.462-.165 1.01.325 1.31.292.177.787.0517 1.03-.19.331-.329.348-.9.0352-1.23z"/><path d="m268 249c-.387-.411-1.11-.375-1.39.111-.269.462-.165 1.01.325 1.31.292.177.787.0517 1.03-.19.331-.329.348-.9.0352-1.23z"/></g></g><g transform="matrix(.198 .236 -.236 .198 195 127)" stroke="#000" stroke-linecap="round" stroke-width=".401"><path d="m284 156c-5.55-3.56.401 11.9 3.56 6.01" fill="#f6d2a2" stroke="#000" stroke-linecap="round" stroke-width=".401"/><g fill="#ffc9c9"><g fill="#ffc9c9" stroke="#000" stroke-linecap="round" stroke-width=".401"><path transform="translate(1.28e-6)" d="m291 144c-1.93-3.4-6.03-.727-4.19 1.85"/><path d="m304 111c-2.12-4.38 5.78-6.43 5.78-.912"/><path d="m330 121c.458 1.11 6.92 8.92.325 25.1-2.22 5.45-8.24 12-15 18.8-4.57 4.57-11 7.02-17.1 3.47-2.26-1.13-5.43-1.37-7.47-2.91-12.1-9.1-8.05-21.7 2.52-21.5-1.82-3.27-3.32-6.97-2.52-11.1l3.57-16.4c7.75-7.75 23.8-8.26 32.1-.408 9.16-5 12 3.96 2.85 4.83"/></g></g><g stroke="#000" stroke-linecap="round" stroke-width=".401"><path d="m303 147c-3.61-2.22-6.95-3.25-9.8-3.31" fill="none"/><path d="m325 117c.509-.339.999-.629 1.47-.888" fill="#69d7e2"/><path d="m311 145c-2.39 9.4 5.67 8.59 5.36-.184" fill="none"/><path d="m331 116c-1.41.152-2.65 1.06-3.61 1.9 2.48.935.537.755 1.32 1.86" fill="none"/><path d="m299 169c-1.22-1.8-3.06-5.69-2.16-6.73.905-1.04 3.4-1.42 4.19 2.22.763 3.51 1.51 5.42.93 6.1-.458.537-1.22.976-2.96-1.58z" fill="#f6d2a2"/><g transform="translate(.0984 .377)"><path d="m297 135c-.141 1.87.441 3.02 1.25 3.24 2.39.642 1.79-.374 1.67-2.82" fill="#fff"/><path d="m300 131c-4.05-1.37-4.98.924-4.76 2.54.0723.539.301.939.502 1.15.24.252.551.562 1 .607.815.0813 2.58.637 3.88.524 1.06-.0914 1.88-.396 2.11-1.09.47-1.4-.142-2.85-2.75-3.73z" fill="#f6d2a2"/><path d="m298 130c-1.87.395.255 1.64.905 1.91.846.352 2.93-.161 2.59-.916s-1.02-.764-1.62-.935c-.603-.172-1.74-.0906-1.88-.06z"/><path d="m299 136c.008.122-.0299.669-.0162.864.0436.618-.0101 1.13.332 2.2" fill="none"/></g><g transform="rotate(6.17 291 138)"><path d="m288 117c12.9-9.8 8.41 24-.641 14-1.98-2.17-2.67-5.29-2.78-8.2.329-3.78 1.62-4.42 3.42-5.8z" fill="#fff"/><path d="m285 127c2.16-1.73 2.51-5.02-.23-6.09-.443.91-1.43 2.4.23 6.09z"/></g><g transform="translate(.869 .483)"><path d="m317 117c-2.69-.57-5.23-.399-7.21 1.59-13.9 13.9 15.8 26.5 15.8 9.05 0-5.13-3-9.44-7.69-10.4z" fill="#fff" stroke-width=".401"/><path d="m313 120c-.857-.351-1.81-.293-2.7.381-3.1 2.35.0322 5.57 2.38 4.82 1.99-.635 1.85-3.61 1.57-4.11-.279-.506-.394-.736-1.25-1.09z" stroke-width=".374"/></g></g></g></g><g transform="translate(-51.6)"><path d="m288 229c2.52-2.52 17.2-2.52 19.7 0s0 1.72 0 1.72c-1.63.815-1.13 1.99-2.85 2.58-.868.295-.457.448-1.65.585-1.36.157-4.35.276-5.88.267-1.73-.01-3.51-.003-5.07-.361-1.91-.437-2.57-1.01-4.33-2.23 0 0-2.42-.0438.0999-2.57z" fill="#c8c4b7" stop-color="#000000" stroke="#999" stroke-width=".0696"/><path d="m308 222h.51l-.11 12.3-22-.0362-1.48-11.2-1.02-.0936-.0905-.949 1.49.0164 1.15 8.97 4.74.0605 2.08 2.39 8.6.0233 2.03-2.42 3.98-.493z" fill="#4d4d4d" stop-color="#000000" stroke="#b3b3b3" stroke-width=".0742" style="font-variation-settings:normal"/><g transform="matrix(.719 .0474 -.0474 .719 114 64.3)"><g transform="matrix(.0051 -.883 .883 .0051 73.3 424)" fill="#69d7e2"><path transform="rotate(74.7 248 215)" d="m266 214c.189-2.96 4.22 3.32 1.23 2.89" fill="#f6d2a2" stroke="#000" stroke-linecap="round" stroke-width=".18"/><g fill="#69d7e2"><g transform="rotate(45 256 214)"><g fill="#ffc9c9" stroke="#000" stroke-linecap="round" stroke-width=".18"><path transform="rotate(29.7 239 224)" d="m260 213c-.0123-1.76 2.18-1.64 2.05-.221"/><path transform="rotate(29.7 239 224)" d="m252 222c3.04 3.12-.278 4.62-2.13 1.13"/><path transform="rotate(-45 256 214)" d="m249 207c.379-2.16 3.8-.827 2.35 1.19"/><path transform="rotate(-45 256 214)" d="m256 218c-.12 1.47-.72 4.04-3.54 6.89-.271.252-.554.489-.839.716 4.42 1.74 3.94 7.66-2.65 9.35-1.11.286-1.79.122-2.78-.442-1.06-.606-2.7-2-3.4-2.95-2.57-3.45-3.01-7.74-3-10.4.005-.937.306-1.8.172-2.57-.591-3.44-1.23-5.39-.539-7.53.564-1.75 3.72-4.08 3.72-4.08 4.75-1.28 11.1 2.12 12.6 7.04"/><path transform="rotate(-45 256 214)" d="m246 221c-1.51-1.15-2.97-1.76-4.24-1.91"/><path d="m256 214c4.69.109 3.8 4.25.026 2.52"/><path d="m257 215c-.584-.258-1.27-.183-1.83-.0702.754.92.0399.414.0982 1.02"/></g></g><g transform="matrix(.389 .224 -.224 .389 157 93.9)" stroke="#000" stroke-linecap="round" stroke-width=".401"><path d="m297 135c-.141 1.87.441 3.02 1.25 3.24 2.39.642 1.79-.374 1.67-2.82" fill="#fff"/><path d="m300 131c-4.05-1.37-4.98.924-4.76 2.54.0723.539.301.939.502 1.15.24.252.551.562 1 .607.815.0813 2.58.637 3.88.524 1.06-.0914 1.88-.396 2.11-1.09.47-1.4-.142-2.85-2.75-3.73z" fill="#f6d2a2"/><path d="m298 130c-1.87.395.255 1.64.905 1.91.846.352 2.93-.161 2.59-.916s-1.02-.764-1.62-.935c-.603-.172-1.74-.0906-1.88-.06z" fill="#000"/><path d="m299 136c.008.122-.0299.669-.0162.864.0436.618-.0101 1.13.332 2.2" fill="#fff"/></g><g transform="matrix(.553 .48 -.605 .508 236 -15.1)"><g transform="matrix(.363 .265 -.265 .363 171 85.4)" fill="#69d7e2" stroke="#000" stroke-linecap="round" stroke-width=".401"><path d="m288 117c6.52-4.97 12.5-1.65 11.7 4.4-.498 4.17-1.7 7.59-5.45 8.71-1.54.462-5.24 1.38-6.54-.0524-1.98-2.17-3.07-4.35-3.18-7.26.329-3.78 1.62-4.42 3.42-5.8z" fill="#fff" stroke="#000" stroke-linecap="round" stroke-width=".401"/></g></g></g><g stroke="#000" stroke-linecap="round"><path d="m251 213c-.805-.856-1.69-1.4-2.69-1.13-2.6.695-1.8 3.12-1.41 4.96.552 2.64 1.82 4.67 4.19 3.64 1.65-.716 1.8-1.99 1.5-3.76-.209-1.25-.441-2.5-1.3-3.41z" fill="#fff" stroke-width=".164"/><path d="m249 216c-.243-.377-.59-.613-1.02-.577-1.49.125-.928 2.3.028 2.63.81.28 1.26-.98 1.25-1.26-.0134-.284-.0146-.409-.258-.786z" fill="#000" stroke-width=".163"/><path d="m248 206c.548-.799-1.43-1.55-2.04-1.07-.517.409.192 1.13.391 1.2.586.208 1.26.53 1.64-.138z" fill="#000" stroke-width=".123"/><path d="m243 230c.408-.888.933-2.75.454-3.14-.479-.394-1.61-.376-1.69 1.3-.0758 1.61-.263 2.51.0435 2.77.243.204.613.342 1.19-.921z" fill="#f6d2a2" stroke-width=".18"/></g></g><g transform="matrix(-.883 0 0 .883 496 -10.8)"><path d="m271 240c.189-2.96 4.22 3.32 1.23 2.89" fill="#f6d2a2" stroke="#000" stroke-linecap="round" stroke-width=".18"/><g transform="rotate(-29.7 290 226)" fill="#ffe680"><g fill="#ffe680" stroke="#000" stroke-linecap="round" stroke-width=".18"><path transform="rotate(29.7 239 224)" d="m260 213c-.0123-1.76 2.18-1.64 2.05-.221"/><path transform="rotate(29.7 239 224)" d="m252 222c3.04 3.12-.278 4.62-2.13 1.13"/><path transform="rotate(-45 256 214)" d="m249 207c.379-2.16 3.8-.827 2.35 1.19"/><path transform="rotate(-45 256 214)" d="m256 218c-.12 1.47-.72 4.04-3.54 6.89-.271.252-.554.489-.839.716 4.42 1.74 3.94 7.66-2.65 9.35-1.11.286-1.79.122-2.78-.442-1.06-.606-2.7-2-3.4-2.95-2.57-3.45-3.01-7.74-3-10.4.005-.937.306-1.8.172-2.57-.591-3.44-1.23-5.39-.539-7.53.564-1.75 3.72-4.08 3.72-4.08 4.75-1.28 11.1 2.12 12.6 7.04"/><path transform="rotate(-45 256 214)" d="m246 221c-1.51-1.15-2.97-1.76-4.24-1.91"/><path d="m256 214c4.69.109 3.8 4.25.026 2.52"/><path d="m257 215c-.584-.258-1.27-.183-1.83-.0702.754.92.0399.414.0982 1.02"/></g></g><g transform="matrix(.33 -.305 .305 .33 110 291)" stroke="#000" stroke-linecap="round" stroke-width=".401"><path d="m297 135c-.141 1.87.441 3.02 1.25 3.24 2.39.642 1.79-.374 1.67-2.82" fill="#fff"/><path d="m300 131c-4.05-1.37-4.98.924-4.76 2.54.0723.539.301.939.502 1.15.24.252.551.562 1 .607.815.0813 2.58.637 3.88.524 1.06-.0914 1.88-.396 2.11-1.09.47-1.4-.142-2.85-2.75-3.73z" fill="#f6d2a2"/><path d="m298 130c-1.87.395.255 1.64.905 1.91.846.352 2.93-.161 2.59-.916s-1.02-.764-1.62-.935c-.603-.172-1.74-.0906-1.88-.06z"/><path d="m299 136c.008.122-.0299.669-.0162.864.0436.618-.0101 1.13.332 2.2" fill="#fff"/></g><g transform="matrix(.609 -.407 .33 .717 28.4 190)" fill="#69d7e2"><g transform="matrix(.363 .265 -.265 .363 171 85.4)" fill="#69d7e2" stroke="#000" stroke-linecap="round" stroke-width=".401"><path d="m288 117c6.52-4.97 12.5-1.65 11.7 4.4-.498 4.17-1.7 7.59-5.45 8.71-1.54.462-5.24 1.38-6.54-.0524-1.98-2.17-3.07-4.35-3.18-7.26.329-3.78 1.62-4.42 3.42-5.8z" fill="#fff" stroke="#000" stroke-linecap="round" stroke-width=".401"/></g></g><g stroke="#000" stroke-linecap="round"><path d="m252 236c-1.04.55-1.8 1.26-1.8 2.3-.0168 2.69 2.54 2.56 4.41 2.67 2.7.167 4.99-.516 4.62-3.08-.254-1.78-1.45-2.26-3.23-2.44-1.26-.129-2.52-.234-3.64.355z" fill="#fff" stroke-width=".164"/><path d="m255 239c-.428.135-.747.407-.825.828-.273 1.47 1.97 1.5 2.54.668.484-.707-.612-1.47-.889-1.54-.277-.0621-.399-.0942-.827.041z" stroke-width=".163"/><path d="m245 238c-.626-.74-1.87.965-1.57 1.68.258.607 1.14.115 1.27-.0589.356-.511.844-1.08.302-1.62z" stroke-width=".123"/><path d="m267 247c-.82-.531-2.59-1.32-3.05-.901-.458.417-.604 1.54 1.04 1.86 1.59.307 2.45.621 2.75.355.237-.211.426-.558-.74-1.31z" fill="#f6d2a2" stroke-width=".18"/></g></g><g transform="matrix(.853 -.228 .228 .853 -32.6 73.9)"><path d="m306 222c.189-2.96 4.22 3.32 1.23 2.89" fill="#f6d2a2" stroke="#000" stroke-linecap="round" stroke-width=".18"/><g transform="rotate(-29.7 273 152)" fill="#cfa"><g fill="#cfa" stroke="#000" stroke-linecap="round" stroke-width=".18"><path transform="rotate(29.7 239 224)" d="m260 213c-.0123-1.76 2.18-1.64 2.05-.221"/><path transform="rotate(29.7 239 224)" d="m252 222c3.04 3.12-.278 4.62-2.13 1.13"/><path transform="rotate(-45 256 214)" d="m249 207c.379-2.16 3.8-.827 2.35 1.19"/><path transform="rotate(-45 256 214)" d="m256 218c-.12 1.47-.72 4.04-3.54 6.89-.271.252-.554.489-.839.716 4.42 1.74 3.94 7.66-2.65 9.35-1.11.286-1.79.122-2.78-.442-1.06-.606-2.7-2-3.4-2.95-2.57-3.45-3.01-7.74-3-10.4.005-.937.306-1.8.172-2.57-.591-3.44-1.23-5.39-.539-7.53.564-1.75 3.72-4.08 3.72-4.08 4.75-1.28 11.1 2.12 12.6 7.04"/><path transform="rotate(-45 256 214)" d="m246 221c-1.51-1.15-2.97-1.76-4.24-1.91"/><path d="m256 214c4.69.109 3.8 4.25.026 2.52"/><path d="m257 215c-.584-.258-1.27-.183-1.83-.0702.754.92.0399.414.0982 1.02"/></g></g><g transform="matrix(.319 -.316 .316 .319 147 278)" stroke="#000" stroke-linecap="round" stroke-width=".401"><path d="m297 135c-.141 1.87.441 3.02 1.25 3.24 2.39.642 1.79-.374 1.67-2.82" fill="#fff"/><path d="m300 131c-4.05-1.37-4.98.924-4.76 2.54.0723.539.301.939.502 1.15.24.252.551.562 1 .607.815.0813 2.58.637 3.88.524 1.06-.0914 1.88-.396 2.11-1.09.47-1.4-.142-2.85-2.75-3.73z" fill="#f6d2a2"/><path d="m298 130c-1.87.395.255 1.64.905 1.91.846.352 2.93-.161 2.59-.916s-1.02-.764-1.62-.935c-.603-.172-1.74-.0906-1.88-.06z"/><path d="m299 136c.008.122-.0299.669-.0162.864.0436.618-.0101 1.13.332 2.2" fill="#fff"/></g><g transform="matrix(.609 -.407 .33 .717 63 173)" fill="#69d7e2"><g transform="matrix(.363 .265 -.265 .363 171 85.4)" fill="#69d7e2" stroke="#000" stroke-linecap="round" stroke-width=".401"><path d="m288 117c6.52-4.97 12.5-1.65 11.7 4.4-.498 4.17-1.7 7.59-5.45 8.71-1.54.462-5.24 1.38-6.54-.0524-1.98-2.17-3.07-4.35-3.18-7.26.329-3.78 1.62-4.42 3.42-5.8z" fill="#fff" stroke="#000" stroke-linecap="round" stroke-width=".401"/></g></g><g stroke="#000" stroke-linecap="round"><path transform="rotate(-74.7 248 215)" d="m254 253c-.805-.856-1.69-1.4-2.69-1.13-2.6.695-1.8 3.12-1.41 4.96.552 2.64 1.82 4.67 4.19 3.64 1.65-.716 1.8-1.99 1.5-3.76-.209-1.25-.441-2.5-1.3-3.41z" fill="#fff" stroke-width=".164"/><path transform="rotate(-74.7 248 215)" d="m252 257c-.243-.377-.59-.613-1.02-.577-1.49.125-.928 2.3.028 2.63.81.28 1.26-.98 1.25-1.26-.0134-.284-.0146-.409-.258-.786z" stroke-width=".163"/><path transform="rotate(-74.7 248 215)" d="m251 247c.548-.799-1.43-1.55-2.04-1.07-.517.409.192 1.13.391 1.2.586.208 1.26.53 1.64-.138z" stroke-width=".123"/><path d="m300 231c-.75-.626-2.41-1.62-2.92-1.26-.505.359-.785 1.46.809 1.97 1.54.495 2.36.911 2.69.682.26-.181.49-.502-.577-1.39z" fill="#f6d2a2" stroke-width=".18"/></g></g></g><g transform="translate(.278 -8.35)"><path d="m288 241c-.911 1.3-.403 3.25 1.09 3.76 1.42.477 2.88-.122 3.42-1.64.321-.902-.304-2.19-1.11-2.72-1.09-.721-2.67-.445-3.41.602z" fill="#666" stroke="#ccc" stroke-width=".139"/><path d="m289 242c-.204.356-.287.734.243 1.21.454.409 1.48.152 1.67-.575.103-.4-.107-.952-.582-1.14-.54-.209-1.05.0195-1.33.5z" fill="#fff" stroke="#b3b3b3" stroke-width=".139"/><g fill="#ccc" stroke="#999" stroke-width=".0773"><path d="m289 241c-.12.171-.0533.43.145.496.188.063.38-.0161.452-.216.0424-.119-.0402-.289-.146-.36-.144-.0954-.353-.0588-.45.0795z"/><path d="m288 241c-.12.171-.0533.43.145.496.188.063.38-.0161.452-.216.0424-.119-.0402-.289-.146-.36-.144-.0954-.353-.0588-.45.0795z"/><path d="m288 242c-.12.171-.0532.43.145.496.188.063.38-.0161.452-.216.0424-.119-.0402-.289-.146-.36-.144-.0954-.353-.0588-.45.0795z"/><path d="m288 243c-.12.171-.0532.43.145.496.188.063.38-.0161.452-.216.0424-.119-.0402-.289-.146-.36-.144-.0952-.353-.0588-.45.0795z"/><path d="m289 244c-.12.171-.0532.43.145.496.188.063.38-.0161.452-.216.0424-.119-.0402-.289-.146-.36-.144-.0954-.353-.0588-.45.0795z"/><path d="m289 244c-.12.171-.0532.43.145.496.188.063.38-.0161.452-.216.0424-.119-.0402-.289-.146-.36-.144-.0954-.353-.0588-.45.0795z"/><path d="m290 244c-.12.171-.0532.43.145.496.188.063.38-.0161.452-.216.0424-.119-.0402-.289-.146-.36-.144-.0954-.353-.0588-.45.0795z"/><path d="m290 244c-.12.171-.0532.43.145.496.188.063.38-.0161.452-.216.0424-.119-.0402-.289-.146-.36-.144-.0954-.353-.0588-.45.0795z"/><path d="m291 243c-.12.171-.0533.43.145.496.188.063.38-.0161.452-.216.0424-.119-.0402-.289-.146-.36-.144-.0954-.353-.0588-.45.0795z"/><path d="m291 242c-.12.171-.0533.43.145.496.188.063.38-.0161.452-.216.0424-.119-.0402-.289-.146-.36-.144-.0954-.353-.0588-.45.0795z"/><path d="m291 241c-.12.171-.0532.43.145.496.188.063.38-.0161.452-.216.0424-.119-.0402-.289-.146-.36-.144-.0954-.353-.0588-.45.0795z"/><path d="m290 241c-.12.171-.0532.43.145.496.188.063.38-.0161.452-.216.0424-.119-.0402-.289-.146-.36-.144-.0954-.353-.0588-.45.0795z"/></g></g><g transform="translate(5.01 -8.35)"><path d="m299 241c-.492.858-.693 1.77.585 2.92 1.09.986 3.57.367 4.02-1.39.249-.965-.258-2.3-1.4-2.74-1.3-.505-2.54.047-3.2 1.21z" fill="#666" stroke="#ccc" stroke-width=".139"/><path d="m302 242c-.107-.396-.316-.722-1.03-.685-.61.0318-1.15.938-.772 1.58.21.356.749.598 1.22.392.529-.234.73-.757.585-1.29z" fill="#fff" stroke="#b3b3b3" stroke-width=".139"/><g fill="#ccc" stroke="#999" stroke-width=".0773"><path d="m302 241c-.203-.0502-.42.106-.41.314.01.198.153.349.365.343.126-.004.255-.142.282-.266.0367-.169-.0728-.35-.237-.391z"/><path d="m301 240c-.203-.0502-.42.106-.41.314.01.198.153.349.365.343.126-.004.255-.142.282-.266.0367-.169-.0729-.35-.237-.391z"/><path d="m300 241c-.203-.0502-.42.106-.41.314.01.198.153.349.365.343.126-.004.255-.142.282-.266.0367-.169-.0729-.35-.237-.391z"/><path d="m299 241c-.203-.0502-.42.106-.41.314.01.198.153.349.365.343.126-.004.255-.142.282-.266.0367-.169-.0729-.35-.237-.391z"/><path d="m299 242c-.203-.0502-.42.106-.41.314.01.198.153.349.365.343.126-.004.255-.142.282-.266.0367-.169-.0729-.35-.237-.391z"/><path d="m299 242c-.203-.0502-.42.106-.41.314.01.198.153.349.365.343.126-.004.255-.142.282-.266.0367-.169-.0729-.35-.237-.391z"/><path d="m299 243c-.203-.0502-.42.106-.41.314.01.198.153.349.365.343.126-.004.255-.142.282-.266.0367-.169-.0729-.35-.237-.391z"/><path d="m299 243c-.203-.0502-.42.106-.41.314.01.198.153.349.365.343.126-.004.255-.142.282-.266.0367-.169-.0729-.35-.237-.391z"/><path d="m300 244c-.203-.0502-.42.106-.41.314.01.198.153.349.365.343.126-.004.255-.142.282-.266.0367-.169-.0729-.35-.237-.391z"/><path d="m301 244c-.203-.0502-.42.106-.41.314.01.198.153.349.365.343.126-.004.255-.142.282-.266.0367-.169-.0729-.35-.237-.391z"/><path d="m302 243c-.203-.0502-.42.106-.41.314.01.198.153.349.365.343.126-.004.255-.142.282-.266.0367-.169-.0729-.35-.237-.391z"/><path d="m302 242c-.203-.0502-.42.106-.41.314.01.198.153.349.365.343.126-.004.255-.142.282-.266.0367-.169-.0729-.35-.237-.391z"/></g></g></g><g transform="translate(-25.9)"><path d="m288 229c2.52-2.52 17.2-2.52 19.7 0s0 1.72 0 1.72c-1.63.815-1.13 1.99-2.85 2.58-.868.295-.457.448-1.65.585-1.36.157-4.35.276-5.88.267-1.73-.01-3.51-.003-5.07-.361-1.91-.437-2.57-1.01-4.33-2.23 0 0-2.42-.0438.0999-2.57z" fill="#c8c4b7" stop-color="#000000" stroke="#999" stroke-width=".0696"/><path d="m308 222h.51l-.11 12.3-22-.0362-1.48-11.2-1.02-.0936-.0905-.949 1.49.0164 1.15 8.97 4.74.0605 2.08 2.39 8.6.0233 2.03-2.42 3.98-.493z" fill="#4d4d4d" stop-color="#000000" stroke="#b3b3b3" stroke-width=".0742" style="font-variation-settings:normal"/><g transform="matrix(.719 .0474 -.0474 .719 114 64.3)"><g transform="matrix(.0051 -.883 .883 .0051 73.3 424)" fill="#69d7e2"><path transform="rotate(74.7 248 215)" d="m266 214c.189-2.96 4.22 3.32 1.23 2.89" fill="#f6d2a2" stroke="#000" stroke-linecap="round" stroke-width=".18"/><g fill="#69d7e2"><g transform="rotate(45 256 214)"><g fill="#69d7e2" stroke="#000" stroke-linecap="round" stroke-width=".18"><path transform="rotate(29.7 239 224)" d="m260 213c-.0123-1.76 2.18-1.64 2.05-.221"/><path transform="rotate(29.7 239 224)" d="m252 222c3.04 3.12-.278 4.62-2.13 1.13"/><path transform="rotate(-45 256 214)" d="m249 207c.379-2.16 3.8-.827 2.35 1.19"/><path transform="rotate(-45 256 214)" d="m256 218c-.12 1.47-.72 4.04-3.54 6.89-.271.252-.554.489-.839.716 4.42 1.74 3.94 7.66-2.65 9.35-1.11.286-1.79.122-2.78-.442-1.06-.606-2.7-2-3.4-2.95-2.57-3.45-3.01-7.74-3-10.4.005-.937.306-1.8.172-2.57-.591-3.44-1.23-5.39-.539-7.53.564-1.75 3.72-4.08 3.72-4.08 4.75-1.28 11.1 2.12 12.6 7.04"/><path transform="rotate(-45 256 214)" d="m246 221c-1.51-1.15-2.97-1.76-4.24-1.91"/><path d="m256 214c4.69.109 3.8 4.25.026 2.52"/><path d="m257 215c-.584-.258-1.27-.183-1.83-.0702.754.92.0399.414.0982 1.02"/></g></g><g transform="matrix(.389 .224 -.224 .389 157 93.9)" stroke="#000" stroke-linecap="round" stroke-width=".401"><path d="m297 135c-.141 1.87.441 3.02 1.25 3.24 2.39.642 1.79-.374 1.67-2.82" fill="#fff"/><path d="m300 131c-4.05-1.37-4.98.924-4.76 2.54.0723.539.301.939.502 1.15.24.252.551.562 1 .607.815.0813 2.58.637 3.88.524 1.06-.0914 1.88-.396 2.11-1.09.47-1.4-.142-2.85-2.75-3.73z" fill="#f6d2a2"/><path d="m298 130c-1.87.395.255 1.64.905 1.91.846.352 2.93-.161 2.59-.916s-1.02-.764-1.62-.935c-.603-.172-1.74-.0906-1.88-.06z" fill="#000"/><path d="m299 136c.008.122-.0299.669-.0162.864.0436.618-.0101 1.13.332 2.2" fill="#fff"/></g><g transform="matrix(.553 .48 -.605 .508 236 -15.1)"><g transform="matrix(.363 .265 -.265 .363 171 85.4)" fill="#69d7e2" stroke="#000" stroke-linecap="round" stroke-width=".401"><path d="m288 117c6.52-4.97 12.5-1.65 11.7 4.4-.498 4.17-1.7 7.59-5.45 8.71-1.54.462-5.24 1.38-6.54-.0524-1.98-2.17-3.07-4.35-3.18-7.26.329-3.78 1.62-4.42 3.42-5.8z" fill="#fff" stroke="#000" stroke-linecap="round" stroke-width=".401"/></g></g></g><g stroke="#000" stroke-linecap="round"><path d="m251 213c-.805-.856-1.69-1.4-2.69-1.13-2.6.695-1.8 3.12-1.41 4.96.552 2.64 1.82 4.67 4.19 3.64 1.65-.716 1.8-1.99 1.5-3.76-.209-1.25-.441-2.5-1.3-3.41z" fill="#fff" stroke-width=".164"/><path d="m249 216c-.243-.377-.59-.613-1.02-.577-1.49.125-.928 2.3.028 2.63.81.28 1.26-.98 1.25-1.26-.0134-.284-.0146-.409-.258-.786z" fill="#000" stroke-width=".163"/><path d="m248 206c.548-.799-1.43-1.55-2.04-1.07-.517.409.192 1.13.391 1.2.586.208 1.26.53 1.64-.138z" fill="#000" stroke-width=".123"/><path d="m243 230c.408-.888.933-2.75.454-3.14-.479-.394-1.61-.376-1.69 1.3-.0758 1.61-.263 2.51.0435 2.77.243.204.613.342 1.19-.921z" fill="#f6d2a2" stroke-width=".18"/></g></g><g transform="matrix(-.883 0 0 .883 496 -10.8)"><path d="m271 240c.189-2.96 4.22 3.32 1.23 2.89" fill="#f6d2a2" stroke="#000" stroke-linecap="round" stroke-width=".18"/><g transform="rotate(-29.7 290 226)" fill="#cfa"><g fill="#cfa" stroke="#000" stroke-linecap="round" stroke-width=".18"><path transform="rotate(29.7 239 224)" d="m260 213c-.0123-1.76 2.18-1.64 2.05-.221"/><path transform="rotate(29.7 239 224)" d="m252 222c3.04 3.12-.278 4.62-2.13 1.13"/><path transform="rotate(-45 256 214)" d="m249 207c.379-2.16 3.8-.827 2.35 1.19"/><path transform="rotate(-45 256 214)" d="m256 218c-.12 1.47-.72 4.04-3.54 6.89-.271.252-.554.489-.839.716 4.42 1.74 3.94 7.66-2.65 9.35-1.11.286-1.79.122-2.78-.442-1.06-.606-2.7-2-3.4-2.95-2.57-3.45-3.01-7.74-3-10.4.005-.937.306-1.8.172-2.57-.591-3.44-1.23-5.39-.539-7.53.564-1.75 3.72-4.08 3.72-4.08 4.75-1.28 11.1 2.12 12.6 7.04"/><path transform="rotate(-45 256 214)" d="m246 221c-1.51-1.15-2.97-1.76-4.24-1.91"/><path d="m256 214c4.69.109 3.8 4.25.026 2.52"/><path d="m257 215c-.584-.258-1.27-.183-1.83-.0702.754.92.0399.414.0982 1.02"/></g></g><g transform="matrix(.33 -.305 .305 .33 110 291)" stroke="#000" stroke-linecap="round" stroke-width=".401"><path d="m297 135c-.141 1.87.441 3.02 1.25 3.24 2.39.642 1.79-.374 1.67-2.82" fill="#fff"/><path d="m300 131c-4.05-1.37-4.98.924-4.76 2.54.0723.539.301.939.502 1.15.24.252.551.562 1 .607.815.0813 2.58.637 3.88.524 1.06-.0914 1.88-.396 2.11-1.09.47-1.4-.142-2.85-2.75-3.73z" fill="#f6d2a2"/><path d="m298 130c-1.87.395.255 1.64.905 1.91.846.352 2.93-.161 2.59-.916s-1.02-.764-1.62-.935c-.603-.172-1.74-.0906-1.88-.06z"/><path d="m299 136c.008.122-.0299.669-.0162.864.0436.618-.0101 1.13.332 2.2" fill="#fff"/></g><g transform="matrix(.609 -.407 .33 .717 28.4 190)" fill="#69d7e2"><g transform="matrix(.363 .265 -.265 .363 171 85.4)" fill="#69d7e2" stroke="#000" stroke-linecap="round" stroke-width=".401"><path d="m288 117c6.52-4.97 12.5-1.65 11.7 4.4-.498 4.17-1.7 7.59-5.45 8.71-1.54.462-5.24 1.38-6.54-.0524-1.98-2.17-3.07-4.35-3.18-7.26.329-3.78 1.62-4.42 3.42-5.8z" fill="#fff" stroke="#000" stroke-linecap="round" stroke-width=".401"/></g></g><g stroke="#000" stroke-linecap="round"><path d="m252 236c-1.04.55-1.8 1.26-1.8 2.3-.0168 2.69 2.54 2.56 4.41 2.67 2.7.167 4.99-.516 4.62-3.08-.254-1.78-1.45-2.26-3.23-2.44-1.26-.129-2.52-.234-3.64.355z" fill="#fff" stroke-width=".164"/><path d="m255 239c-.428.135-.747.407-.825.828-.273 1.47 1.97 1.5 2.54.668.484-.707-.612-1.47-.889-1.54-.277-.0621-.399-.0942-.827.041z" stroke-width=".163"/><path d="m245 238c-.626-.74-1.87.965-1.57 1.68.258.607 1.14.115 1.27-.0589.356-.511.844-1.08.302-1.62z" stroke-width=".123"/><path d="m267 247c-.82-.531-2.59-1.32-3.05-.901-.458.417-.604 1.54 1.04 1.86 1.59.307 2.45.621 2.75.355.237-.211.426-.558-.74-1.31z" fill="#f6d2a2" stroke-width=".18"/></g></g><g transform="matrix(.853 -.228 .228 .853 -32.6 73.9)"><path d="m306 222c.189-2.96 4.22 3.32 1.23 2.89" fill="#f6d2a2" stroke="#000" stroke-linecap="round" stroke-width=".18"/><g transform="rotate(-29.7 273 152)" fill="#ffe680"><g fill="#ffe680" stroke="#000" stroke-linecap="round" stroke-width=".18"><path transform="rotate(29.7 239 224)" d="m260 213c-.0123-1.76 2.18-1.64 2.05-.221"/><path transform="rotate(29.7 239 224)" d="m252 222c3.04 3.12-.278 4.62-2.13 1.13"/><path transform="rotate(-45 256 214)" d="m249 207c.379-2.16 3.8-.827 2.35 1.19"/><path transform="rotate(-45 256 214)" d="m256 218c-.12 1.47-.72 4.04-3.54 6.89-.271.252-.554.489-.839.716 4.42 1.74 3.94 7.66-2.65 9.35-1.11.286-1.79.122-2.78-.442-1.06-.606-2.7-2-3.4-2.95-2.57-3.45-3.01-7.74-3-10.4.005-.937.306-1.8.172-2.57-.591-3.44-1.23-5.39-.539-7.53.564-1.75 3.72-4.08 3.72-4.08 4.75-1.28 11.1 2.12 12.6 7.04"/><path transform="rotate(-45 256 214)" d="m246 221c-1.51-1.15-2.97-1.76-4.24-1.91"/><path d="m256 214c4.69.109 3.8 4.25.026 2.52"/><path d="m257 215c-.584-.258-1.27-.183-1.83-.0702.754.92.0399.414.0982 1.02"/></g></g><g transform="matrix(.319 -.316 .316 .319 147 278)" stroke="#000" stroke-linecap="round" stroke-width=".401"><path d="m297 135c-.141 1.87.441 3.02 1.25 3.24 2.39.642 1.79-.374 1.67-2.82" fill="#fff"/><path d="m300 131c-4.05-1.37-4.98.924-4.76 2.54.0723.539.301.939.502 1.15.24.252.551.562 1 .607.815.0813 2.58.637 3.88.524 1.06-.0914 1.88-.396 2.11-1.09.47-1.4-.142-2.85-2.75-3.73z" fill="#f6d2a2"/><path d="m298 130c-1.87.395.255 1.64.905 1.91.846.352 2.93-.161 2.59-.916s-1.02-.764-1.62-.935c-.603-.172-1.74-.0906-1.88-.06z"/><path d="m299 136c.008.122-.0299.669-.0162.864.0436.618-.0101 1.13.332 2.2" fill="#fff"/></g><g transform="matrix(.609 -.407 .33 .717 63 173)" fill="#69d7e2"><g transform="matrix(.363 .265 -.265 .363 171 85.4)" fill="#69d7e2" stroke="#000" stroke-linecap="round" stroke-width=".401"><path d="m288 117c6.52-4.97 12.5-1.65 11.7 4.4-.498 4.17-1.7 7.59-5.45 8.71-1.54.462-5.24 1.38-6.54-.0524-1.98-2.17-3.07-4.35-3.18-7.26.329-3.78 1.62-4.42 3.42-5.8z" fill="#fff" stroke="#000" stroke-linecap="round" stroke-width=".401"/></g></g><g stroke="#000" stroke-linecap="round"><path transform="rotate(-74.7 248 215)" d="m254 253c-.805-.856-1.69-1.4-2.69-1.13-2.6.695-1.8 3.12-1.41 4.96.552 2.64 1.82 4.67 4.19 3.64 1.65-.716 1.8-1.99 1.5-3.76-.209-1.25-.441-2.5-1.3-3.41z" fill="#fff" stroke-width=".164"/><path transform="rotate(-74.7 248 215)" d="m252 257c-.243-.377-.59-.613-1.02-.577-1.49.125-.928 2.3.028 2.63.81.28 1.26-.98 1.25-1.26-.0134-.284-.0146-.409-.258-.786z" stroke-width=".163"/><path transform="rotate(-74.7 248 215)" d="m251 247c.548-.799-1.43-1.55-2.04-1.07-.517.409.192 1.13.391 1.2.586.208 1.26.53 1.64-.138z" stroke-width=".123"/><path d="m300 231c-.75-.626-2.41-1.62-2.92-1.26-.505.359-.785 1.46.809 1.97 1.54.495 2.36.911 2.69.682.26-.181.49-.502-.577-1.39z" fill="#f6d2a2" stroke-width=".18"/></g></g></g><g transform="translate(.278 -8.35)"><path d="m288 241c-.911 1.3-.403 3.25 1.09 3.76 1.42.477 2.88-.122 3.42-1.64.321-.902-.304-2.19-1.11-2.72-1.09-.721-2.67-.445-3.41.602z" fill="#666" stroke="#ccc" stroke-width=".139"/><path d="m289 242c-.204.356-.287.734.243 1.21.454.409 1.48.152 1.67-.575.103-.4-.107-.952-.582-1.14-.54-.209-1.05.0195-1.33.5z" fill="#fff" stroke="#b3b3b3" stroke-width=".139"/><g fill="#ccc" stroke="#999" stroke-width=".0773"><path d="m289 241c-.12.171-.0533.43.145.496.188.063.38-.0161.452-.216.0424-.119-.0402-.289-.146-.36-.144-.0954-.353-.0588-.45.0795z"/><path d="m288 241c-.12.171-.0533.43.145.496.188.063.38-.0161.452-.216.0424-.119-.0402-.289-.146-.36-.144-.0954-.353-.0588-.45.0795z"/><path d="m288 242c-.12.171-.0532.43.145.496.188.063.38-.0161.452-.216.0424-.119-.0402-.289-.146-.36-.144-.0954-.353-.0588-.45.0795z"/><path d="m288 243c-.12.171-.0532.43.145.496.188.063.38-.0161.452-.216.0424-.119-.0402-.289-.146-.36-.144-.0952-.353-.0588-.45.0795z"/><path d="m289 244c-.12.171-.0532.43.145.496.188.063.38-.0161.452-.216.0424-.119-.0402-.289-.146-.36-.144-.0954-.353-.0588-.45.0795z"/><path d="m289 244c-.12.171-.0532.43.145.496.188.063.38-.0161.452-.216.0424-.119-.0402-.289-.146-.36-.144-.0954-.353-.0588-.45.0795z"/><path d="m290 244c-.12.171-.0532.43.145.496.188.063.38-.0161.452-.216.0424-.119-.0402-.289-.146-.36-.144-.0954-.353-.0588-.45.0795z"/><path d="m290 244c-.12.171-.0532.43.145.496.188.063.38-.0161.452-.216.0424-.119-.0402-.289-.146-.36-.144-.0954-.353-.0588-.45.0795z"/><path d="m291 243c-.12.171-.0533.43.145.496.188.063.38-.0161.452-.216.0424-.119-.0402-.289-.146-.36-.144-.0954-.353-.0588-.45.0795z"/><path d="m291 242c-.12.171-.0533.43.145.496.188.063.38-.0161.452-.216.0424-.119-.0402-.289-.146-.36-.144-.0954-.353-.0588-.45.0795z"/><path d="m291 241c-.12.171-.0532.43.145.496.188.063.38-.0161.452-.216.0424-.119-.0402-.289-.146-.36-.144-.0954-.353-.0588-.45.0795z"/><path d="m290 241c-.12.171-.0532.43.145.496.188.063.38-.0161.452-.216.0424-.119-.0402-.289-.146-.36-.144-.0954-.353-.0588-.45.0795z"/></g></g><g transform="translate(5.01 -8.35)"><path d="m299 241c-.492.858-.693 1.77.585 2.92 1.09.986 3.57.367 4.02-1.39.249-.965-.258-2.3-1.4-2.74-1.3-.505-2.54.047-3.2 1.21z" fill="#666" stroke="#ccc" stroke-width=".139"/><path d="m302 242c-.107-.396-.316-.722-1.03-.685-.61.0318-1.15.938-.772 1.58.21.356.749.598 1.22.392.529-.234.73-.757.585-1.29z" fill="#fff" stroke="#b3b3b3" stroke-width=".139"/><g fill="#ccc" stroke="#999" stroke-width=".0773"><path d="m302 241c-.203-.0502-.42.106-.41.314.01.198.153.349.365.343.126-.004.255-.142.282-.266.0367-.169-.0728-.35-.237-.391z"/><path d="m301 240c-.203-.0502-.42.106-.41.314.01.198.153.349.365.343.126-.004.255-.142.282-.266.0367-.169-.0729-.35-.237-.391z"/><path d="m300 241c-.203-.0502-.42.106-.41.314.01.198.153.349.365.343.126-.004.255-.142.282-.266.0367-.169-.0729-.35-.237-.391z"/><path d="m299 241c-.203-.0502-.42.106-.41.314.01.198.153.349.365.343.126-.004.255-.142.282-.266.0367-.169-.0729-.35-.237-.391z"/><path d="m299 242c-.203-.0502-.42.106-.41.314.01.198.153.349.365.343.126-.004.255-.142.282-.266.0367-.169-.0729-.35-.237-.391z"/><path d="m299 242c-.203-.0502-.42.106-.41.314.01.198.153.349.365.343.126-.004.255-.142.282-.266.0367-.169-.0729-.35-.237-.391z"/><path d="m299 243c-.203-.0502-.42.106-.41.314.01.198.153.349.365.343.126-.004.255-.142.282-.266.0367-.169-.0729-.35-.237-.391z"/><path d="m299 243c-.203-.0502-.42.106-.41.314.01.198.153.349.365.343.126-.004.255-.142.282-.266.0367-.169-.0729-.35-.237-.391z"/><path d="m300 244c-.203-.0502-.42.106-.41.314.01.198.153.349.365.343.126-.004.255-.142.282-.266.0367-.169-.0729-.35-.237-.391z"/><path d="m301 244c-.203-.0502-.42.106-.41.314.01.198.153.349.365.343.126-.004.255-.142.282-.266.0367-.169-.0729-.35-.237-.391z"/><path d="m302 243c-.203-.0502-.42.106-.41.314.01.198.153.349.365.343.126-.004.255-.142.282-.266.0367-.169-.0729-.35-.237-.391z"/><path d="m302 242c-.203-.0502-.42.106-.41.314.01.198.153.349.365.343.126-.004.255-.142.282-.266.0367-.169-.0729-.35-.237-.391z"/></g></g></g><g><g><path d="m288 229c2.52-2.52 17.2-2.52 19.7 0s0 1.72 0 1.72c-1.63.815-1.13 1.99-2.85 2.58-.868.295-.457.448-1.65.585-1.36.157-4.35.276-5.88.267-1.73-.01-3.51-.003-5.07-.361-1.91-.437-2.57-1.01-4.33-2.23 0 0-2.42-.0438.0999-2.57z" fill="#c8c4b7" stop-color="#000000" stroke="#999" stroke-width=".0696"/><path d="m308 222h.51l-.11 12.3-22-.0362-1.48-11.2-1.02-.0936-.0905-.949 1.49.0164 1.15 8.97 4.74.0605 2.08 2.39 8.6.0233 2.03-2.42 3.98-.493z" fill="#4d4d4d" stop-color="#000000" stroke="#b3b3b3" stroke-width=".0742" style="font-variation-settings:normal"/><path transform="matrix(.623 -.124 .124 .623 113 122)" d="m266 214c.189-2.96 4.22 3.32 1.23 2.89" fill="#f6d2a2" stroke="#000" stroke-linecap="round" stroke-width=".18"/></g><g transform="matrix(.48 -.416 .416 .48 82.2 224)" fill="#cfa"><g fill="#cfa" stroke="#000" stroke-linecap="round" stroke-width=".18"><path transform="rotate(29.7 239 224)" d="m260 213c-.0123-1.76 2.18-1.64 2.05-.221"/><path transform="rotate(29.7 239 224)" d="m252 222c3.04 3.12-.278 4.62-2.13 1.13"/><path transform="rotate(-45 256 214)" d="m249 207c.379-2.16 3.8-.827 2.35 1.19"/><path transform="rotate(-45 256 214)" d="m256 218c-.12 1.47-.72 4.04-3.54 6.89-.271.252-.554.489-.839.716 4.42 1.74 3.94 7.66-2.65 9.35-1.11.286-1.79.122-2.78-.442-1.06-.606-2.7-2-3.4-2.95-2.57-3.45-3.01-7.74-3-10.4.005-.937.306-1.8.172-2.57-.591-3.44-1.23-5.39-.539-7.53.564-1.75 3.72-4.08 3.72-4.08 4.75-1.28 11.1 2.12 12.6 7.04"/><path transform="rotate(-45 256 214)" d="m246 221c-1.51-1.15-2.97-1.76-4.24-1.91"/><path d="m256 214c4.69.109 3.8 4.25.026 2.52"/><path d="m257 215c-.584-.258-1.27-.183-1.83-.0702.754.92.0399.414.0982 1.02"/></g></g><g transform="matrix(.16 -.237 .237 .16 214 277)" stroke="#000" stroke-linecap="round" stroke-width=".401"><path d="m297 135c-.141 1.87.441 3.02 1.25 3.24 2.39.642 1.79-.374 1.67-2.82" fill="#fff"/><path d="m300 131c-4.05-1.37-4.98.924-4.76 2.54.0723.539.301.939.502 1.15.24.252.551.562 1 .607.815.0813 2.58.637 3.88.524 1.06-.0914 1.88-.396 2.11-1.09.47-1.4-.142-2.85-2.75-3.73z" fill="#f6d2a2"/><path d="m298 130c-1.87.395.255 1.64.905 1.91.846.352 2.93-.161 2.59-.916s-1.02-.764-1.62-.935c-.603-.172-1.74-.0906-1.88-.06z"/><path d="m299 136c.008.122-.0299.669-.0162.864.0436.618-.0101 1.13.332 2.2" fill="#fff"/></g><g transform="matrix(.33 -.329 .294 .406 148 222)" fill="#69d7e2"><g transform="matrix(.363 .265 -.265 .363 171 85.4)" fill="#69d7e2" stroke="#000" stroke-linecap="round" stroke-width=".401"><path d="m288 117c6.52-4.97 12.5-1.65 11.7 4.4-.498 4.17-1.7 7.59-5.45 8.71-1.54.462-5.24 1.38-6.54-.0524-1.98-2.17-3.07-4.35-3.18-7.26.329-3.78 1.62-4.42 3.42-5.8z" fill="#fff" stroke="#000" stroke-linecap="round" stroke-width=".401"/></g></g><g stroke="#000" stroke-linecap="round"><path transform="matrix(.0455 -.634 .634 .0455 147 372)" d="m251 213c-.805-.856-1.69-1.4-2.69-1.13-2.6.695-1.8 3.12-1.41 4.96.552 2.64 1.82 4.67 4.19 3.64 1.65-.716 1.8-1.99 1.5-3.76-.209-1.25-.441-2.5-1.3-3.41z" fill="#fff" stroke-width=".164"/><path transform="matrix(.0455 -.634 .634 .0455 147 372)" d="m249 216c-.243-.377-.59-.613-1.02-.577-1.49.125-.928 2.3.028 2.63.81.28 1.26-.98 1.25-1.26-.0134-.284-.0146-.409-.258-.786z" stroke-width=".163"/><path transform="matrix(.0455 -.634 .634 .0455 147 372)" d="m248 206c.548-.799-1.43-1.55-2.04-1.07-.517.409.192 1.13.391 1.2.586.208 1.26.53 1.64-.138z" stroke-width=".123"/><path transform="matrix(.0455 -.634 .634 .0455 147 372)" d="m243 230c.408-.888.933-2.75.454-3.14-.479-.394-1.61-.376-1.69 1.3-.0758 1.61-.263 2.51.0435 2.77.243.204.613.342 1.19-.921z" fill="#f6d2a2" stroke-width=".18"/></g></g><g transform="matrix(-.634 -.0418 -.0418 .634 471 80.1)"><path d="m271 240c.189-2.96 4.22 3.32 1.23 2.89" fill="#f6d2a2" stroke="#000" stroke-linecap="round" stroke-width=".18"/><g transform="rotate(-29.7 290 226)" fill="#ffe680"><g fill="#ffe680" stroke="#000" stroke-linecap="round" stroke-width=".18"><path transform="rotate(29.7 239 224)" d="m260 213c-.0123-1.76 2.18-1.64 2.05-.221"/><path transform="rotate(29.7 239 224)" d="m252 222c3.04 3.12-.278 4.62-2.13 1.13"/><path transform="rotate(-45 256 214)" d="m249 207c.379-2.16 3.8-.827 2.35 1.19"/><path transform="rotate(-45 256 214)" d="m256 218c-.12 1.47-.72 4.04-3.54 6.89-.271.252-.554.489-.839.716 4.42 1.74 3.94 7.66-2.65 9.35-1.11.286-1.79.122-2.78-.442-1.06-.606-2.7-2-3.4-2.95-2.57-3.45-3.01-7.74-3-10.4.005-.937.306-1.8.172-2.57-.591-3.44-1.23-5.39-.539-7.53.564-1.75 3.72-4.08 3.72-4.08 4.75-1.28 11.1 2.12 12.6 7.04"/><path transform="rotate(-45 256 214)" d="m246 221c-1.51-1.15-2.97-1.76-4.24-1.91"/><path d="m256 214c4.69.109 3.8 4.25.026 2.52"/><path d="m257 215c-.584-.258-1.27-.183-1.83-.0702.754.92.0399.414.0982 1.02"/></g></g><g transform="matrix(.33 -.305 .305 .33 110 291)" stroke="#000" stroke-linecap="round" stroke-width=".401"><path d="m297 135c-.141 1.87.441 3.02 1.25 3.24 2.39.642 1.79-.374 1.67-2.82" fill="#fff"/><path d="m300 131c-4.05-1.37-4.98.924-4.76 2.54.0723.539.301.939.502 1.15.24.252.551.562 1 .607.815.0813 2.58.637 3.88.524 1.06-.0914 1.88-.396 2.11-1.09.47-1.4-.142-2.85-2.75-3.73z" fill="#f6d2a2"/><path d="m298 130c-1.87.395.255 1.64.905 1.91.846.352 2.93-.161 2.59-.916s-1.02-.764-1.62-.935c-.603-.172-1.74-.0906-1.88-.06z"/><path d="m299 136c.008.122-.0299.669-.0162.864.0436.618-.0101 1.13.332 2.2" fill="#fff"/></g><g transform="matrix(.609 -.407 .33 .717 28.4 190)" fill="#69d7e2"><g transform="matrix(.363 .265 -.265 .363 171 85.4)" fill="#69d7e2" stroke="#000" stroke-linecap="round" stroke-width=".401"><path d="m288 117c6.52-4.97 12.5-1.65 11.7 4.4-.498 4.17-1.7 7.59-5.45 8.71-1.54.462-5.24 1.38-6.54-.0524-1.98-2.17-3.07-4.35-3.18-7.26.329-3.78 1.62-4.42 3.42-5.8z" fill="#fff" stroke="#000" stroke-linecap="round" stroke-width=".401"/></g></g><g stroke="#000" stroke-linecap="round"><path d="m252 236c-1.04.55-1.8 1.26-1.8 2.3-.0168 2.69 2.54 2.56 4.41 2.67 2.7.167 4.99-.516 4.62-3.08-.254-1.78-1.45-2.26-3.23-2.44-1.26-.129-2.52-.234-3.64.355z" fill="#fff" stroke-width=".164"/><path d="m255 239c-.428.135-.747.407-.825.828-.273 1.47 1.97 1.5 2.54.668.484-.707-.612-1.47-.889-1.54-.277-.0621-.399-.0942-.827.041z" stroke-width=".163"/><path d="m245 238c-.626-.74-1.87.965-1.57 1.68.258.607 1.14.115 1.27-.0589.356-.511.844-1.08.302-1.62z" stroke-width=".123"/><path d="m267 247c-.82-.531-2.59-1.32-3.05-.901-.458.417-.604 1.54 1.04 1.86 1.59.307 2.45.621 2.75.355.237-.211.426-.558-.74-1.31z" fill="#f6d2a2" stroke-width=".18"/></g></g><g transform="matrix(.623 -.124 .124 .623 87.4 116)"><path d="m306 222c.189-2.96 4.22 3.32 1.23 2.89" fill="#f6d2a2" stroke="#000" stroke-linecap="round" stroke-width=".18"/><g fill="#69d7e2"><g transform="rotate(-29.7 273 152)"><g fill="#69d7e2" stroke="#000" stroke-linecap="round" stroke-width=".18"><path transform="rotate(29.7 239 224)" d="m260 213c-.0123-1.76 2.18-1.64 2.05-.221"/><path transform="rotate(29.7 239 224)" d="m252 222c3.04 3.12-.278 4.62-2.13 1.13"/><path transform="rotate(-45 256 214)" d="m249 207c.379-2.16 3.8-.827 2.35 1.19"/><path transform="rotate(-45 256 214)" d="m256 218c-.12 1.47-.72 4.04-3.54 6.89-.271.252-.554.489-.839.716 4.42 1.74 3.94 7.66-2.65 9.35-1.11.286-1.79.122-2.78-.442-1.06-.606-2.7-2-3.4-2.95-2.57-3.45-3.01-7.74-3-10.4.005-.937.306-1.8.172-2.57-.591-3.44-1.23-5.39-.539-7.53.564-1.75 3.72-4.08 3.72-4.08 4.75-1.28 11.1 2.12 12.6 7.04"/><path transform="rotate(-45 256 214)" d="m246 221c-1.51-1.15-2.97-1.76-4.24-1.91"/><path d="m256 214c4.69.109 3.8 4.25.026 2.52"/><path d="m257 215c-.584-.258-1.27-.183-1.83-.0702.754.92.0399.414.0982 1.02"/></g></g><g transform="matrix(.319 -.316 .316 .319 147 278)" stroke="#000" stroke-linecap="round" stroke-width=".401"><path d="m297 135c-.141 1.87.441 3.02 1.25 3.24 2.39.642 1.79-.374 1.67-2.82" fill="#fff"/><path d="m300 131c-4.05-1.37-4.98.924-4.76 2.54.0723.539.301.939.502 1.15.24.252.551.562 1 .607.815.0813 2.58.637 3.88.524 1.06-.0914 1.88-.396 2.11-1.09.47-1.4-.142-2.85-2.75-3.73z" fill="#f6d2a2"/><path d="m298 130c-1.87.395.255 1.64.905 1.91.846.352 2.93-.161 2.59-.916s-1.02-.764-1.62-.935c-.603-.172-1.74-.0906-1.88-.06z" fill="#000"/><path d="m299 136c.008.122-.0299.669-.0162.864.0436.618-.0101 1.13.332 2.2" fill="#fff"/></g><g transform="matrix(.609 -.407 .33 .717 63 173)"><g transform="matrix(.363 .265 -.265 .363 171 85.4)" fill="#69d7e2" stroke="#000" stroke-linecap="round" stroke-width=".401"><path d="m288 117c6.52-4.97 12.5-1.65 11.7 4.4-.498 4.17-1.7 7.59-5.45 8.71-1.54.462-5.24 1.38-6.54-.0524-1.98-2.17-3.07-4.35-3.18-7.26.329-3.78 1.62-4.42 3.42-5.8z" fill="#fff" stroke="#000" stroke-linecap="round" stroke-width=".401"/></g></g></g><g stroke="#000" stroke-linecap="round"><path transform="rotate(-74.7 248 215)" d="m254 253c-.805-.856-1.69-1.4-2.69-1.13-2.6.695-1.8 3.12-1.41 4.96.552 2.64 1.82 4.67 4.19 3.64 1.65-.716 1.8-1.99 1.5-3.76-.209-1.25-.441-2.5-1.3-3.41z" fill="#fff" stroke-width=".164"/><path transform="rotate(-74.7 248 215)" d="m252 257c-.243-.377-.59-.613-1.02-.577-1.49.125-.928 2.3.028 2.63.81.28 1.26-.98 1.25-1.26-.0134-.284-.0146-.409-.258-.786z" stroke-width=".163"/><path transform="rotate(-74.7 248 215)" d="m251 247c.548-.799-1.43-1.55-2.04-1.07-.517.409.192 1.13.391 1.2.586.208 1.26.53 1.64-.138z" stroke-width=".123"/><path d="m300 231c-.75-.626-2.41-1.62-2.92-1.26-.505.359-.785 1.46.809 1.97 1.54.495 2.36.911 2.69.682.26-.181.49-.502-.577-1.39z" fill="#f6d2a2" stroke-width=".18"/></g></g><g transform="translate(.278 -8.35)"><path d="m288 241c-.911 1.3-.403 3.25 1.09 3.76 1.42.477 2.88-.122 3.42-1.64.321-.902-.304-2.19-1.11-2.72-1.09-.721-2.67-.445-3.41.602z" fill="#666" stroke="#ccc" stroke-width=".139"/><path d="m289 242c-.204.356-.287.734.243 1.21.454.409 1.48.152 1.67-.575.103-.4-.107-.952-.582-1.14-.54-.209-1.05.0195-1.33.5z" fill="#fff" stroke="#b3b3b3" stroke-width=".139"/><g fill="#ccc" stroke="#999" stroke-width=".0773"><path d="m289 241c-.12.171-.0533.43.145.496.188.063.38-.0161.452-.216.0424-.119-.0402-.289-.146-.36-.144-.0954-.353-.0588-.45.0795z"/><path d="m288 241c-.12.171-.0533.43.145.496.188.063.38-.0161.452-.216.0424-.119-.0402-.289-.146-.36-.144-.0954-.353-.0588-.45.0795z"/><path d="m288 242c-.12.171-.0532.43.145.496.188.063.38-.0161.452-.216.0424-.119-.0402-.289-.146-.36-.144-.0954-.353-.0588-.45.0795z"/><path d="m288 243c-.12.171-.0532.43.145.496.188.063.38-.0161.452-.216.0424-.119-.0402-.289-.146-.36-.144-.0952-.353-.0588-.45.0795z"/><path d="m289 244c-.12.171-.0532.43.145.496.188.063.38-.0161.452-.216.0424-.119-.0402-.289-.146-.36-.144-.0954-.353-.0588-.45.0795z"/><path d="m289 244c-.12.171-.0532.43.145.496.188.063.38-.0161.452-.216.0424-.119-.0402-.289-.146-.36-.144-.0954-.353-.0588-.45.0795z"/><path d="m290 244c-.12.171-.0532.43.145.496.188.063.38-.0161.452-.216.0424-.119-.0402-.289-.146-.36-.144-.0954-.353-.0588-.45.0795z"/><path d="m290 244c-.12.171-.0532.43.145.496.188.063.38-.0161.452-.216.0424-.119-.0402-.289-.146-.36-.144-.0954-.353-.0588-.45.0795z"/><path d="m291 243c-.12.171-.0533.43.145.496.188.063.38-.0161.452-.216.0424-.119-.0402-.289-.146-.36-.144-.0954-.353-.0588-.45.0795z"/><path d="m291 242c-.12.171-.0533.43.145.496.188.063.38-.0161.452-.216.0424-.119-.0402-.289-.146-.36-.144-.0954-.353-.0588-.45.0795z"/><path d="m291 241c-.12.171-.0532.43.145.496.188.063.38-.0161.452-.216.0424-.119-.0402-.289-.146-.36-.144-.0954-.353-.0588-.45.0795z"/><path d="m290 241c-.12.171-.0532.43.145.496.188.063.38-.0161.452-.216.0424-.119-.0402-.289-.146-.36-.144-.0954-.353-.0588-.45.0795z"/></g></g><g transform="translate(5.01 -8.35)"><path d="m299 241c-.492.858-.693 1.77.585 2.92 1.09.986 3.57.367 4.02-1.39.249-.965-.258-2.3-1.4-2.74-1.3-.505-2.54.047-3.2 1.21z" fill="#666" stroke="#ccc" stroke-width=".139"/><path d="m302 242c-.107-.396-.316-.722-1.03-.685-.61.0318-1.15.938-.772 1.58.21.356.749.598 1.22.392.529-.234.73-.757.585-1.29z" fill="#fff" stroke="#b3b3b3" stroke-width=".139"/><g fill="#ccc" stroke="#999" stroke-width=".0773"><path d="m302 241c-.203-.0502-.42.106-.41.314.01.198.153.349.365.343.126-.004.255-.142.282-.266.0367-.169-.0728-.35-.237-.391z"/><path d="m301 240c-.203-.0502-.42.106-.41.314.01.198.153.349.365.343.126-.004.255-.142.282-.266.0367-.169-.0729-.35-.237-.391z"/><path d="m300 241c-.203-.0502-.42.106-.41.314.01.198.153.349.365.343.126-.004.255-.142.282-.266.0367-.169-.0729-.35-.237-.391z"/><path d="m299 241c-.203-.0502-.42.106-.41.314.01.198.153.349.365.343.126-.004.255-.142.282-.266.0367-.169-.0729-.35-.237-.391z"/><path d="m299 242c-.203-.0502-.42.106-.41.314.01.198.153.349.365.343.126-.004.255-.142.282-.266.0367-.169-.0729-.35-.237-.391z"/><path d="m299 242c-.203-.0502-.42.106-.41.314.01.198.153.349.365.343.126-.004.255-.142.282-.266.0367-.169-.0729-.35-.237-.391z"/><path d="m299 243c-.203-.0502-.42.106-.41.314.01.198.153.349.365.343.126-.004.255-.142.282-.266.0367-.169-.0729-.35-.237-.391z"/><path d="m299 243c-.203-.0502-.42.106-.41.314.01.198.153.349.365.343.126-.004.255-.142.282-.266.0367-.169-.0729-.35-.237-.391z"/><path d="m300 244c-.203-.0502-.42.106-.41.314.01.198.153.349.365.343.126-.004.255-.142.282-.266.0367-.169-.0729-.35-.237-.391z"/><path d="m301 244c-.203-.0502-.42.106-.41.314.01.198.153.349.365.343.126-.004.255-.142.282-.266.0367-.169-.0729-.35-.237-.391z"/><path d="m302 243c-.203-.0502-.42.106-.41.314.01.198.153.349.365.343.126-.004.255-.142.282-.266.0367-.169-.0729-.35-.237-.391z"/><path d="m302 242c-.203-.0502-.42.106-.41.314.01.198.153.349.365.343.126-.004.255-.142.282-.266.0367-.169-.0729-.35-.237-.391z"/></g></g></g></g></svg>
