<svg width="200" height="175" version="1.1" viewBox="0 0 52.917 46.302" xmlns="http://www.w3.org/2000/svg">
 <g transform="matrix(.36765 0 0 .36765 -4.6393 -4.1191)">
  <g transform="matrix(3.8304,0,0,3.5958,-618.3,-629.77)">
   <rect x="165.97" y="186.24" width="15.799" height="13.815" fill="#1a1a1a"/>
   <g transform="matrix(.59852 0 0 .59852 110.21 74.298)">
    <g transform="matrix(.81167 0 0 .81167 70.925 40.296)" fill="#fff"></g>
    <path transform="matrix(.2811 0 0 .2811 -249.07 -243.91)" d="m1257.6 1509.3c-12.673-0.01-24.941 0.6383-36.543 2.3476-4.1866 0.6168-6.6273 3.1508-7.2813 10.588-2.4522 27.887 3.5908 66.207 2.9649 90.646-0.1082 4.2194 0.112 7.3737 4.3164 7.7461 29.362 2.6008 57.918 0 86.877 0 4.2208-3e-4 7.7364-3.4342 7.6641-7.6543-0.4869-28.418-1.8223-64.586 0-93.684 0.2639-4.2125-3.4548-7.332-7.6641-7.6426-17.076-1.2599-34.04-2.3403-50.334-2.3476zm-29.554 8.338h0.045c3.6123-6e-4 6.5411 2.7891 6.541 6.2305 0 3.4407-2.9295 6.2292-6.541 6.2285-3.6109-3e-4 -6.5381-2.7885-6.5391-6.2285-3e-4 -3.424 2.9-6.2305 6.4941-6.2305zm17.477-1.5343h0.045c3.6116 4e-4 6.5391 2.7898 6.539 6.2304-1e-3 3.4399-2.9282 6.2281-6.539 6.2285-3.6116 6e-4 -6.54-2.7879-6.541-6.2285-2e-4 -3.424 2.9-6.2304 6.4941-6.2304zm8.6174 18.392c13.356-0.073 31.412 0.4856 55.774 2.3828-3.0363 49.951-2.0181 57.595-2.584 77.088-29.978-2.7075-53.977 0.2489-84.266 0.334 1.4028-24.935-3.9883-51.396-3.9883-77.422 3.598-0.3795 12.804-2.2603 35.064-2.3828z" fill="#008080"/>
   </g>
   <g style="font-variant-caps:normal;font-variant-east-asian:normal;font-variant-ligatures:normal;font-variant-numeric:normal" aria-label="&gt;">
    <path d="m168.74 196.83 1.6024 1.9692c0.23167-0.34751 0.73363-0.79155 1.197-1.1584 0.91704-0.76259 4.8458-2.9538 5.0968-3.1276l0.0193-2.1816c-1.5155-1.2452-4.5273-3.4268-5.8111-4.1798-0.28959-0.1641-0.4923-0.29924-0.83016-0.40542l-1.2549 1.9982c1.5541 0.82051 3.6778 2.4422 5.2126 3.6295-1.3804 0.97496-4.4597 2.2588-5.232 3.4558z" fill="#85da2b" style="font-variant-caps:normal;font-variant-east-asian:normal;font-variant-ligatures:normal;font-variant-numeric:normal"/>
   </g>
  </g>
  <g transform="matrix(1.9007,0,0,1.9007,-481.39,-189.74)" stroke="#000" stroke-linecap="round" stroke-width=".40147">
   <path d="m283.78 156.17c-6.4878-7.0042-5.6704 8.691 3.5634 6.0094" fill="#f6d2a2"/>
   <path d="m290.05 144.38c-3.3527-5.1002-7.5422-3.7039-3.4107 1.6109" fill="#69d7e2"/>
   <g fill="#69d7e2">
    <path d="m303.71 111.33c-2.1217-4.3825 5.7755-6.434 5.7755-0.91239"/>
    <path d="m329.18 121.2c4.9848 16.616 10.384 39.558-11.426 46.742-6.1322 2.0199-13.404 3.9668-19.468 0.41468-2.2561-1.1338-5.4266-1.3746-7.469-2.9096-12.102-9.0954-8.0472-21.658 2.517-21.482-1.8177-3.2748-3.3173-6.9695-2.5232-11.063l3.5742-16.395c7.7466-7.7466 23.773-8.2628 32.059-0.40753 9.1646-5.0034 11.932 4.2349 2.7359 5.1006"/>
   </g>
   <path d="m303.13 147.27c-3.605-2.2229-6.9501-3.2499-9.7972-3.3091" fill="none"/>
   <path d="m324.97 116.98c0.50879-0.33883 0.99883-0.62876 1.474-0.88787" fill="#69d7e2"/>
   <path d="m321.63 149.34c-9.3367 2.6285-4.6043 9.2001 2.8391 4.5499" fill="none"/>
   <path d="m330.77 116.46c-1.4123 0.1518-2.6517 1.059-3.6091 1.9002 2.4768 0.93511 0.53749 0.75465 1.3232 1.8578" fill="none"/>
   <path d="m298.29 168.35c-1.3442-1.7082-3.4505-5.4662-2.6198-6.567 0.83065-1.1008 2.173-1.113 4.3314 1.9224 2.0574 2.8933 2.9504 6.6396 1.6118 6.9298-0.62746 0.13603-1.4112 0.14478-3.3234-2.2852z" fill="#f6d2a2"/>
   <g transform="translate(.098434 .37728)">
    <path d="m297.33 135.32c-0.14079 1.8714 0.44119 3.0186 1.2541 3.2364 2.3943 0.64155 1.7934-0.37388 1.6709-2.8245" fill="#fff"/>
    <path d="m300.08 130.89c-4.054-1.3726-4.9756 0.92363-4.7584 2.5418 0.0723 0.53868 0.30121 0.93862 0.50173 1.1489 0.24005 0.25175 0.55114 0.5615 1.005 0.6068 0.81471 0.0813 2.5752 0.63659 3.8847 0.52404 1.0631-0.0914 1.8808-0.39598 2.113-1.0883 0.47041-1.4028-0.14209-2.8516-2.746-3.7332z" fill="#f6d2a2"/>
    <path d="m297.57 130.11c-1.8658 0.39527 0.25454 1.6398 0.90517 1.9106 0.84588 0.35201 2.9294-0.1608 2.5916-0.91573s-1.0184-0.76392-1.6172-0.93481c-0.60277-0.17204-1.7356-0.0906-1.8796-0.06z"/>
    <path d="m298.56 135.53c8e-3 0.12184-0.0299 0.6689-0.0162 0.86354 0.0436 0.6182-0.0101 1.1268 0.33155 2.1986" fill="none"/>
   </g>
   <g transform="rotate(6.1684,290.76,138.47)">
    <path d="m287.76 117.02c12.87-9.8031 8.4128 23.956-0.64055 14.004-1.9756-2.1718-2.6749-5.294-2.7841-8.2041 0.32898-3.7801 1.6171-4.4229 3.4247-5.7997z" fill="#fff"/>
    <path d="m284.94 126.8c2.1646-1.728 2.5122-5.0175-0.22977-6.0858-0.44255 0.90979-1.4289 2.4028 0.22977 6.0858z"/>
   </g>
   <g transform="translate(.86931 .48324)">
    <path d="m316.98 116.92c-2.6881-0.56986-5.2276-0.39911-7.2128 1.5861-13.873 13.873 15.848 26.526 15.848 9.0504 0-5.1256-3.0044-9.4428-7.6893-10.436z" fill="#fff"/>
    <path d="m321.09 123.6c-0.95642-0.43748-1.9902-0.44703-2.9028 0.20483-3.1849 2.275 0.45006 5.935 2.945 5.3112 2.1135-0.52837 1.7371-3.7052 1.3966-4.265s-0.48243-0.81358-1.4388-1.2511z"/>
   </g>
  </g>
 </g>
</svg>
